<?xml version="1.0" encoding="UTF-8"?>
<!DOCTYPE svg PUBLIC "-//W3C//DTD SVG 1.1//EN" "http://www.w3.org/Graphics/SVG/1.1/DTD/svg11.dtd">
<!-- Creator: CorelDRAW -->
<svg xmlns="http://www.w3.org/2000/svg" xml:space="preserve" width="114.833mm" height="51.3473mm" style="shape-rendering:geometricPrecision; text-rendering:geometricPrecision; image-rendering:optimizeQuality; fill-rule:evenodd; clip-rule:evenodd"
viewBox="0 0 123.86 55.3839"
 xmlns:xlink="http://www.w3.org/1999/xlink">
 <defs>
  <style type="text/css">
   <![CDATA[
    .fil0 {fill:black}
    .fil1 {fill:white}
    .fil2 {fill:url(#id0)}
   ]]>
  </style>
  <linearGradient id="id0" gradientUnits="userSpaceOnUse" x1="51.4592" y1="-2.19541" x2="72.3951" y2="18.7405">
   <stop offset="0" style="stop-color:#339966"/>
   <stop offset="1" style="stop-color:#004F32"/>
   <stop offset="1" style="stop-color:#004F32"/>
  </linearGradient>
 </defs>
 <g id="_0">
  <metadata id="CorelCorpID_0Corel-Layer"/>
  <g id="_42253856">
   <path id="_170829896" class="fil0" d="M61.9296 22.7921c-0.226293,0 -0.392723,0.169558 -0.394341,0.173333 -0.010139,0.00755029 -4.01794,3.83231 -4.01794,3.83231 -1.47792,1.42657 -3.44013,0.829345 -3.64981,0.759883 0,0 -17.1319,-4.67352 -17.1341,-4.67503 -3.26938,-0.986176 -3.91903,-2.0499 -4.41929,-3.34219 0,0 -0.290578,-0.803674 -1.00225,-1.014 0,0 -20.9422,-6.14766 -20.9439,-6.14766 -0.854585,-0.263829 -1.32486,-0.505114 -1.66085,-1.15573 0,0 -1.14937,-2.02423 -1.15315,-2.02963 -0.2552,-0.485268 -0.716954,-0.53661 -0.743704,-0.540385 -1.58384,-0.214105 -2.04829,-1.09695 -2.2447,-1.47317 0,0 -0.934187,-1.64057 -0.934187,-1.64057 -0.292196,-0.50835 -0.710051,-0.551171 -0.722886,-0.552789 -0.900534,-0.0572743 -1.32917,-0.284107 -1.70151,-0.895788 0,0 -0.913369,-1.51912 -0.917145,-1.52656 -0.448919,-0.829345 -0.293706,-1.42334 -0.0866126,-1.7754 0.436083,-0.722347 1.23447,-0.777464 1.55493,-0.788682 0,0 50.0769,0 50.0769,0 1.41794,0 2.56365,0.429719 3.41068,1.27934 0.608446,0.606288 1.02738,1.39713 1.24407,2.35008 0.00377515,0.0224351 0.0626674,0.221547 0.4912,0.221547l9.898 0c0.428641,0 0.487533,-0.199004 0.4912,-0.221547 0.216693,-0.952955 0.635627,-1.7439 1.24407,-2.35008 0.847035,-0.849731 1.99263,-1.27934 3.41068,-1.27934 0,0 50.0769,0 50.0769,0 0.320456,0.0112176 1.11885,0.0663347 1.55493,0.788682 0.207094,0.352059 0.362306,0.946051 -0.0866126,1.7754 -0.00377515,0.00755029 -0.917145,1.52656 -0.917145,1.52656 -0.372445,0.611574 -0.800978,0.838514 -1.70151,0.895788 -0.0128355,0.00161792 -0.430798,0.0444389 -0.722886,0.552789 0,0 -0.934187,1.64057 -0.934187,1.64057 -0.196415,0.376112 -0.660866,1.25906 -2.2447,1.47317 -0.0267496,0.00377515 -0.488504,0.0551171 -0.743704,0.540385 -0.00377515,0.00539306 -1.15315,2.02963 -1.15315,2.02963 -0.335988,0.650727 -0.806371,0.892013 -1.66085,1.15573 -0.00161792,0 -20.9439,6.14766 -20.9439,6.14766 -0.711669,0.21033 -1.00225,1.014 -1.00225,1.014 -0.500261,1.29218 -1.14991,2.35601 -4.41929,3.34219 -0.00215723,0.00151006 -17.1341,4.67503 -17.1341,4.67503 -0.209682,0.0695705 -2.17189,0.666691 -3.64981,-0.759883 0,0 -4.0078,-3.82476 -4.01794,-3.83231 -0.00161792,-0.00377515 -0.168048,-0.173333 -0.394341,-0.173333l-0.00086289 0z"/>
   <path id="_170829840" class="fil1" d="M68.28 3.83231c0.174951,-0.775954 0.509968,-1.41212 0.99103,-1.89318 0.666151,-0.66723 1.59343,-1.00645 2.75197,-1.00645 0,0 11.2015,0 23.005,0 -0.790839,0.591835 -1.2061,1.34039 -1.23393,1.39022 -0.266417,0.499182 -0.599277,1.08347 -0.995236,1.73797 0,0 -24.6,0 -24.6,0 0.0508027,-0.0898485 0.0813274,-0.22845 0.0813274,-0.22845l-0.000107861 -0.000107861zm54.4703 -1.71446c-0.0128355,0.0202779 -0.898377,1.49345 -0.898377,1.49345 -0.168048,0.276664 -0.27181,0.401891 -0.962123,0.445791 -0.00377515,0 -27.2434,0.00366728 -27.2434,0.00366728 0.304492,-0.515793 0.566164,-0.984019 0.785554,-1.39173 0.00744243,-0.0144534 0.972262,-1.73419 2.68564,-1.73419 0,0 24.9575,-0.00215723 24.9575,-0.00215723 0.261671,0.0112176 0.601974,0.0406637 0.781779,0.337606 0.0218958,0.0401244 0.0733457,0.12307 0.0733457,0.27235 0,0.132669 -0.0422816,0.320995 -0.179805,0.575224l-0.000107861 0zm-3.33205 2.96068c0,0 -0.950905,1.67002 -0.950905,1.67002 -0.129973,0.247218 -0.330163,0.628723 -0.96579,0.848113 -0.531325,0.132669 -1.58815,0.0481061 -1.95412,0.00377515 0,0 -23.173,-1.5395 -23.173,-1.5395 0.299639,-0.444065 0.577382,-0.871627 0.830424,-1.27729 0,0 26.4135,0 26.4135,0 -0.0690312,0.0882305 -0.136984,0.184011 -0.200083,0.294785l0 0.000107861zm-3.93931 3.67926c0.00593237,-0.00701098 -0.911212,1.60789 -1.10223,1.94344 -0.0471354,0.0626674 -0.307728,0.346235 -1.15681,0.233843 0,0 -22.205,-2.97881 -22.205,-2.97881 0.304492,-0.398116 0.592806,-0.792996 0.863106,-1.1745 0,0 23.5883,1.56518 23.5883,1.56518 0.0342999,0.00377515 0.133748,0.0149927 0.275586,0.0278282 -0.0968594,0.110774 -0.185198,0.235893 -0.26275,0.383123l-0.000215723 -0.000107861zm-7.63723 4.31003c-0.835817,0.221547 -2.47099,-0.0294461 -3.03878,-0.147123 0,0 -10.4449,-2.14622 -15.2581,-3.13617 0.333939,-0.392292 0.654394,-0.781239 0.958348,-1.16652 0,0 22.2992,2.99326 22.2992,2.99326 0,0 -4.96086,1.45656 -4.96086,1.45656l0.000107861 0zm-7.56356 2.21957c-1.07279,0.287342 -2.47315,-0.177108 -2.48653,-0.180883 0,0 -0.0166106,-0.00539306 -0.0166106,-0.00539306 0,0 -0.00215723,-0.00161792 -0.00377515,-0.00161792 0,0 -10.2127,-3.15052 -10.2127,-3.15052 0.506193,-0.514283 0.987254,-1.02522 1.44049,-1.53735 0,0 15.6582,3.21858 15.6582,3.21858 0.0342999,0.0052852 0.354756,0.0717278 0.805292,0.134287 0,0 -5.18446,1.52289 -5.18446,1.52289l0.000107861 0zm-7.97753 2.34318c-0.725044,0.196955 -1.79363,-0.221547 -2.14838,-0.400273 0,0 -2.73267,-1.27934 -5.53868,-2.59191 0.842828,-0.691391 1.62989,-1.39713 2.36346,-2.11041 0,0 10.5905,3.26831 10.5905,3.26831 0.0202779,0.00744243 0.213026,0.0701098 0.507811,0.136445 0,0 -5.77468,1.69784 -5.77468,1.69784zm-1.63475 1.59829c-0.308268,0.790839 -0.630881,1.6053 -2.80332,2.42181 -0.896759,0.278714 -1.96329,-0.514283 -1.97235,-0.523343 -0.00377515,-0.00366728 -2.42235,-1.73473 -5.17648,-3.70547 1.11885,-0.690852 2.2104,-1.45063 3.26938,-2.27997 0,0 5.85223,2.73914 5.85223,2.73914 0.0320348,0.0166106 0.635627,0.320995 1.3666,0.45744 -0.349363,0.398116 -0.507811,0.809068 -0.536178,0.890395l0.000107861 0zm-8.18527 3.95592c0,0 -0.815431,0.221008 -0.815431,0.221008 -0.686537,0.164273 -1.52451,-0.515901 -1.79255,-0.798389 0,0 -1.31634,-1.3693 -3.00771,-3.13564 1.08196,-0.490122 2.13932,-1.03752 3.17145,-1.64219 0,0 5.42359,3.88042 5.42359,3.88042 0.0218958,0.0182286 0.331781,0.250454 0.787064,0.44784 -1.20503,0.328006 -3.76641,1.02684 -3.76641,1.02684l0 0.000107861zm-7.17062 1.95574c-0.572528,0.0903878 -1.23717,-0.849731 -1.42981,-1.20028 0,0 -1.63572,-2.76848 -1.63572,-2.76848 1.33608,-0.385281 2.64217,-0.846495 3.91256,-1.39022 0,0 3.19021,3.32925 3.19021,3.32925 0.0283675,0.0278282 0.381505,0.394341 0.893092,0.683841 0,0 -4.93023,1.34579 -4.93023,1.34579l-0.000107861 0.000107861zm-5.4306 1.48007c-0.385281,0.0887698 -0.71059,0.0497241 -0.989951,-0.119295 -0.600356,-0.367052 -0.799899,-1.2115 -0.811225,-1.26122 0,0 -0.834199,-3.01041 -0.834199,-3.01041 1.45915,-0.202779 2.8841,-0.488504 4.27692,-0.857174 0,0 1.73042,2.92962 1.73042,2.92962 0.0594316,0.104841 0.410412,0.717062 0.936991,1.14462 0,0 -4.30906,1.17396 -4.30906,1.17396l0.000107861 -0.000107861zm-3.5193 -1.09263c0,0 -2.3202,-2.21418 -3.10727,-2.96273 1.10439,-0.0385065 2.1939,-0.119834 3.26399,-0.245061 0,0 0.853506,3.07836 0.853506,3.07836 0.0241609,0.106998 0.194258,0.781779 0.668309,1.3185 -0.653855,-0.186276 -0.851888,-0.379887 -1.67854,-1.18896l0 -0.000107861zm-4.06767 -3.66696c0,0 0,-9.37897 0,-9.37897 0,0 1.49711,0 1.49711,0 0,0 2.53097,9.13229 2.53097,9.13229 -1.31731,0.150898 -2.65986,0.233843 -4.02808,0.246679zm-4.75474 -0.246679c0,0 2.53258,-9.13229 2.53258,-9.13229 0,0 1.49711,0 1.49711,0 0,0 0,9.37746 0,9.37746 -1.37092,-0.0112176 -2.71293,-0.0957808 -4.0297,-0.245061l0 -0.000107861zm-0.664641 4.5086c-0.328006,0.318946 -0.696676,0.497672 -1.05359,0.593884 0.477286,-0.538336 0.643177,-1.21517 0.668309,-1.32001 0,0 0.853506,-3.07297 0.853506,-3.07297 1.0702,0.123609 2.1596,0.204397 3.26345,0.241286 -0.883923,0.840671 -3.73168,3.5578 -3.73168,3.5578zm-1.09317 -0.888238c0,0.00906035 -0.196415,0.890395 -0.812303,1.26662 -0.279361,0.169127 -0.603592,0.208064 -0.988872,0.119295 0,0 -4.30906,-1.17396 -4.30906,-1.17396 0.526471,-0.429719 0.881335,-1.04183 0.942276,-1.15422 -0.00215723,0.00215723 0.729897,-1.2349 1.72244,-2.91776 1.39335,0.36867 2.82046,0.654394 4.27961,0.855016 0,0 -0.834199,3.00502 -0.834199,3.00502l0.000107861 0zm-7.23178 -0.0941629c0,0 -4.93023,-1.34579 -4.93023,-1.34579 0.511478,-0.291118 0.866234,-0.65817 0.893092,-0.685459 0,0 1.40942,-1.47155 3.19021,-3.32774 1.2719,0.542003 2.57433,1.00645 3.91094,1.39173 0,0 -1.62881,2.75995 -1.62881,2.75995 -0.198465,0.357452 -0.863106,1.29757 -1.43509,1.20718l-0.000107861 0.000107861zm-6.35627 -1.73473c0,0 -4.58087,-1.24785 -4.58087,-1.24785 0.4569,-0.199004 0.768943,-0.433387 0.794614,-0.453772 -0.00377515,0.00377515 2.55933,-1.83051 5.41615,-3.87449 1.03223,0.602513 2.08949,1.15207 3.17306,1.64219 0,0 -3.00933,3.13564 -3.00933,3.13564 -0.268035,0.282489 -1.10601,0.962554 -1.79363,0.798389l0 -0.000107861zm-6.20213 -1.75512c-2.16337,-0.816618 -2.48761,-1.62935 -2.79533,-2.41803 -0.0251317,-0.0701098 -0.183472,-0.490661 -0.538228,-0.89417 0.732594,-0.138602 1.33824,-0.442447 1.37782,-0.462833 -0.00593237,0.00161792 2.92638,-1.36768 5.84263,-2.73374 1.05629,0.829345 2.14784,1.59074 3.26723,2.27997 0,0 -5.16893,3.69802 -5.16893,3.69802 -0.0166106,0.0166106 -1.08843,0.813274 -1.98519,0.530785zm-4.43062 -4.0201c-0.218311,-0.0648246 -2.64648,-0.778111 -5.7763,-1.69784 0.29856,-0.0663347 0.494975,-0.132669 0.516871,-0.14022 -0.00906035,0.00377515 8.5822,-2.64713 10.5829,-3.26453 0.733565,0.711669 1.52074,1.41902 2.36346,2.1088 0,0 -5.52962,2.58824 -5.52962,2.58824 -0.365973,0.184011 -1.4324,0.602513 -2.15744,0.405558l0.000107861 0zm-7.97375 -2.34156c-1.7027,-0.499182 -3.49783,-1.0263 -5.19093,-1.52451 0.451615,-0.0625596 0.774228,-0.129002 0.807989,-0.136445 -0.00161792,0.00215723 11.0544,-2.27091 15.6582,-3.21642 0.45539,0.5104 0.932677,1.02306 1.43887,1.53735 0,0 -10.224,3.1543 -10.224,3.1543 -0.0230823,0.00701098 -1.41751,0.469844 -2.4903,0.185737l0.000107861 0zm-7.56194 -2.21903c-2.30036,-0.678448 -4.16992,-1.22584 -4.96777,-1.45861 0,0 22.3025,-2.99326 22.3025,-2.99326 0.304492,0.383123 0.62333,0.772071 0.95673,1.1649 0,0 -15.2597,3.13779 -15.2597,3.13779 -0.566164,0.117677 -2.1939,0.36867 -3.03187,0.14928l0.000107861 -0.000107861zm-5.38347 -2.13501c-0.843367,0.112391 -1.10817,-0.165891 -1.15681,-0.232225 0,0 -1.10978,-1.95412 -1.10978,-1.95412 -0.075395,-0.145505 -0.164812,-0.266957 -0.257357,-0.374063 0.142269,-0.0128355 23.8681,-1.593 23.8681,-1.593 0.2703,0.381505 0.556456,0.774228 0.860949,1.1745 0,0 -22.205,2.97881 -22.205,2.97881l-0.000107861 0.000107861zm-4.28123 -3.33841c-0.636274,-0.21939 -0.837974,-0.600895 -0.967947,-0.848113 -0.389056,-0.661298 -0.900642,-1.64963 -1.15207,-1.9648 0,0 26.4178,0 26.4178,0 0.253582,0.405558 0.529168,0.833121 0.830424,1.27729 0,0 -23.1763,1.5395 -23.1763,1.5395 -0.363816,0.0444389 -1.42118,0.128894 -1.95197,-0.00377515l0 -0.000107861zm-3.38285 -3.53591c-0.636274,-0.0475668 -0.77164,-0.12307 -0.971722,-0.451615 0.00215723,0.00215723 -0.830424,-1.38213 -0.896759,-1.49129 -0.138062,-0.254121 -0.18358,-0.442555 -0.177648,-0.575224 0.015532,-0.339224 0.246139,-0.600895 0.853506,-0.610063 0,0 24.9591,0.00215723 24.9591,0.00215723 1.68932,0 2.68564,1.73419 2.68564,1.73419 0.21939,0.407716 0.481061,0.875942 0.787172,1.39173 0,0 -27.2391,0 -27.2391,0l-0.000215723 0.000107861zm48.8587 -3.12809c1.16059,0 2.08582,0.339224 2.75251,1.00645 0.481061,0.481061 0.815,1.11723 0.992647,1.89318 0,0 0.0358099,0.132669 0.0813274,0.22845 0,0 -24.5996,0 -24.5996,0 -0.376112,-0.617506 -0.995775,-1.73797 -0.995775,-1.73797 -0.0272889,-0.0497241 -0.443094,-0.798389 -1.23393,-1.39022 11.8035,0 23.0029,0 23.0029,0l-0.000107861 0.000107861zm35.6226 4.80403c0,0 0,-0.952955 0,-0.952955 0,0 4.89075,0 4.89075,0 -0.248836,0.390566 -0.520646,0.799899 -0.811764,1.22207 0,0 -4.07899,-0.269114 -4.07899,-0.269114zm0 1.74379c0,0 0,-0.991461 0,-0.991461 0,0 3.57118,0.235893 3.57118,0.235893 -0.263829,0.366513 -0.545778,0.740576 -0.840024,1.12262 0,0 -2.73116,-0.367052 -2.73116,-0.367052zm0 1.87668c0,0 0,-1.14667 0,-1.14667 0,0 2.20878,0.29705 2.20878,0.29705 -0.296942,0.367052 -0.608338,0.73734 -0.933108,1.11129 -0.5694,-0.117677 -1.00807,-0.206554 -1.27568,-0.261671zm0 0.739389c0,0 0.720837,0.147123 0.720837,0.147123 -0.232225,0.256278 -0.473619,0.516332 -0.720837,0.772718 0,0 0,-0.919841 0,-0.919841zm-7.45117 2.38546c0,0 5.96948,0 5.96948,0 -0.608446,0.60467 -2.04451,1.77486 -2.09165,1.8139 -1.45171,-0.680605 -2.86749,-1.34039 -3.87772,-1.8139l-0.000107861 0zm-6.19577 0c0,0 4.48617,0 4.48617,0 0,0 4.94846,2.31535 4.94846,2.31535 -1.02846,0.787172 -2.08582,1.50952 -3.17252,2.16769 -2.38805,-1.71068 -4.90413,-3.51175 -6.2621,-4.48293l0 -0.000107861zm-3.64981 0c0,0 2.40682,0 2.40682,0 0,0 6.82126,4.88482 6.82126,4.88482 -0.994158,0.569831 -2.0156,1.08789 -3.0569,1.54856 -2.24632,-2.34102 -4.9517,-5.16354 -6.17118,-6.43339zm-3.04892 0c0,0 2.04397,0 2.04397,0 0,0 6.46326,6.73939 6.46326,6.73939 -1.22056,0.50889 -2.47369,0.941737 -3.75573,1.30512 0,0 -4.75161,-8.04451 -4.75161,-8.04451l0.000107861 0zm-0.84175 0c0,0 4.86875,8.23985 4.86875,8.23985 -1.33295,0.346774 -2.69793,0.612113 -4.09075,0.802057 0,0 -2.50691,-9.0419 -2.50691,-9.0419 0,0 1.72891,0 1.72891,0zm-8.68122 0c0,0 1.72891,0 1.72891,0 0,0 -2.50691,9.0419 -2.50691,9.0419 -1.39497,-0.189944 -2.75791,-0.45539 -4.09075,-0.800007 1.82415,-3.0858 4.25826,-7.20815 4.86875,-8.2419zm-2.88615 0c0,0 2.04451,0 2.04451,0 0,0 -4.75161,8.04451 -4.75161,8.04451 -1.28204,-0.36112 -2.53366,-0.796232 -3.75681,-1.30717 2.59201,-2.70052 5.71093,-5.95233 6.4638,-6.73723l0.000107861 -0.000107861zm-3.41122 0c0,0 2.40682,0 2.40682,0 0,0 -6.16902,6.43339 -6.16902,6.43339 -1.04345,-0.460676 -2.06274,-0.978626 -3.06013,-1.54856 2.96058,-2.12001 6.04649,-4.32998 6.82233,-4.88482zm-11.3166 1.8139c-0.0545778,-0.0444389 -1.48439,-1.24623 -2.09165,-1.8139 0,0 5.96883,0 5.96883,0 0,0 -3.87718,1.8139 -3.87718,1.8139zm5.58732 -1.8139c0,0 4.48509,0 4.48509,0 0,0 -6.26156,4.48131 -6.26156,4.48131 -1.08735,-0.656552 -2.14461,-1.3789 -3.17145,-2.16607 2.35062,-1.10062 4.52737,-2.1184 4.94792,-2.31535l0 0.000107861zm-9.16648 -2.38546c0,0 0,0.912291 0,0.912291 -0.245061,-0.254121 -0.483219,-0.510508 -0.713287,-0.765168 0.286264,-0.0604023 0.52604,-0.108616 0.713287,-0.147123zm0 -1.88617c0,0 0,1.14667 0,1.14667 0,0 -1.27028,0.261671 -1.27028,0.261671 -0.324231,-0.375681 -0.634009,-0.744243 -0.930519,-1.11129 0,0 2.2008,-0.29705 2.2008,-0.29705zm0 -1.72136c0,0 0,0.991461 0,0.991461 0,0 -2.72361,0.367052 -2.72361,0.367052 -0.294785,-0.382045 -0.574146,-0.756108 -0.837867,-1.12262 0,0 3.56158,-0.235893 3.56158,-0.235893l-0.000107861 0zm0 -0.752333c0,0 -4.06939,0.269114 -4.06939,0.269114 -0.293275,-0.422169 -0.563467,-0.831503 -0.812303,-1.22207 0,0 4.88159,0 4.88159,0 0,0 0,0.952955 0,0.952955l0.000107861 0z"/>
   <path id="_170831360" class="fil2" d="M37.1315 11.7574c-0.00377515,-0.00377515 -0.00701098,-0.00755029 -0.0106783,-0.0112176 0,0 0,-6.95878 0,-6.95878 0,0 49.6129,0 49.6129,0 0,0 0,6.96255 0,6.96255 -0.00161792,0.00377515 -0.00377515,0.00377515 -0.00539306,0.00539306 0,0 -49.5967,0.00215723 -49.5967,0.00215723l-0.000107861 -0.000107861z"/>
   <path id="_171137640" class="fil1" d="M40.4174 5.89872c0,0 -0.207094,0 -0.207094,0 0,0 -2.12001,4.74298 -2.12001,4.74298 0,0 0.574146,0 0.574146,0 0,0 0.00906035,-0.0272889 0.00906035,-0.0272889 0.171715,-0.577382 0.392831,-1.13006 0.607367,-1.66096 0,0 0.0305247,-0.0759344 0.0444389,-0.112391 0.0524206,0 1.58707,0 1.63949,0 0.221547,0.504575 0.448379,1.08357 0.691391,1.77486 0,0 0.00959966,0.025671 0.00959966,0.025671 0,0 0.792457,0 0.792457,0 0,0 -2.04084,-4.74298 -2.04084,-4.74298l0 0.000107861zm-0.931598 2.5808c0.0433602,-0.104841 0.599817,-1.40834 0.666151,-1.56302 0.0652561,0.154673 0.632499,1.45807 0.677369,1.56302 -0.111313,0 -1.2349,0 -1.34363,0l0.000107861 0z"/>
   <path id="_171199256" class="fil1" d="M42.6866 10.3045c0,0 0.0176893,0.0182286 0.0176893,0.0182286 0.250454,0.272889 0.814892,0.400273 1.11885,0.400273 0.994805,0 1.69137,-0.641559 1.69137,-1.56291 0,-0.76355 -0.577921,-0.988333 -1.13653,-1.20934 -0.496054,-0.197494 -0.967947,-0.379887 -0.967947,-0.943894 0,-0.428101 0.337606,-0.73734 0.799899,-0.73734 0.369749,0 0.649001,0.195337 0.790839,0.552789 0,0 0.00959966,0.025671 0.00959966,0.025671 0,0 0.126306,0 0.126306,0 0,0 0.197925,-0.598846 0.197925,-0.598846 0,0 -0.0218958,-0.0202779 -0.0218958,-0.0202779 -0.270193,-0.243443 -0.685998,-0.330163 -0.981861,-0.330163 -0.927284,0 -1.52548,0.51795 -1.52548,1.32173 0,0.818667 0.610495,1.05629 1.14775,1.27028 0.485915,0.187787 0.941737,0.36867 0.941737,0.931059 0,0.521725 -0.389056,0.932677 -0.884463,0.932677 -0.453772,0 -0.755029,-0.195337 -1.0482,-0.67478 0,0 -0.0112176,-0.0182286 -0.0112176,-0.0182286 0,0 -0.126306,0 -0.126306,0 0,0 -0.138062,0.643177 -0.138062,0.643177l0 -0.000107861z"/>
   <path id="_171234112" class="fil1" d="M49.2576 5.99655c0,0 -3.48769,0 -3.48769,0 0,0 0,0.488504 0,0.488504 0,0 0.0449782,-0.00377515 0.0449782,-0.00377515 0.400273,-0.0422816 0.787172,-0.0791702 1.41794,-0.0813274 0,0.0829453 0,4.25664 0,4.25664 0,0 0.669926,0 0.669926,0 0,0 0,-4.17154 0,-4.25448 0.473511,0 0.926205,0.0272889 1.34945,0.0791702 0,0 0.0471354,0.00539306 0.0471354,0.00539306 0,0 0,-0.490122 0,-0.490122 0,0 -0.0417423,0 -0.0417423,0z"/>
   <path id="_171242176" class="fil1" d="M51.6607 5.89872c-1.47953,0 -2.51435,0.997393 -2.51435,2.42235 0,1.43779 1.00645,2.40196 2.50152,2.40196 1.54533,0 2.58608,-1.00645 2.58608,-2.50314 0,-1.60422 -1.29326,-2.32118 -2.57325,-2.32118zm1.23868 3.99658c-0.329085,0.348284 -0.742194,0.5255 -1.23339,0.5255 -1.08304,0 -1.78349,-0.792457 -1.78349,-2.0183 0,-1.35862 0.707894,-2.20134 1.84443,-2.20134 0.536178,0 1.04237,0.236001 1.35485,0.630341 0.343538,0.43878 0.413648,0.896327 0.413648,1.44372 0.00204936,0.0294461 0.00366728,0.0625596 0.00366728,0.0941629 0,0.445683 -0.181315,1.07818 -0.599817,1.52602l0.000107861 -0.000107861z"/>
   <path id="_171242152" class="fil1" d="M58.8794 5.99655c0,0 -0.415697,0 -0.415697,0 0,0 0,3.35664 0,3.43797 -0.00377515,0 -0.00539306,0 -0.00755029,0 -0.0240531,-0.0278282 -3.1736,-3.43797 -3.1736,-3.43797 0,0 -0.320456,0 -0.320456,0 0,0 0,4.64515 0,4.64515 0,0 0.457008,0 0.457008,0 0,0 0,-3.51186 0,-3.59469 0.00377515,0 0.00593237,0 0.00959966,0 0.0245924,0.0278282 2.87073,3.17835 2.87073,3.17835 0,0 0.356913,0.416345 0.356913,0.416345 0,0 0.0213565,0 0.0213565,0 0,0 0.243011,0 0.243011,0 0,0 0,-4.64515 0,-4.64515 0,0 -0.041203,0 -0.041203,0l-0.000107861 0z"/>
   <path id="_171249360" class="fil1" d="M66.3853 5.99655c0,0 -0.164273,0 -0.164273,0 0,0 -1.12532,2.0403 -1.12532,2.0403 0,0 -0.711669,1.29811 -0.776386,1.41428 -0.694087,-1.15789 -1.31904,-2.37629 -1.85133,-3.43258 0,0 -0.0112176,-0.0220037 -0.0112176,-0.0220037 0,0 -0.236001,0 -0.236001,0 0,0 -0.00366728,0.0385065 -0.00366728,0.0385065 -0.0663347,0.685998 -0.466069,3.4823 -0.64048,4.56048 0,0 -0.00906035,0.0460568 -0.00906035,0.0460568 0,0 0.562928,0 0.562928,0 0,0 0,-0.0401244 0,-0.0401244 0,-0.654394 0.116059,-1.62989 0.239668,-2.66417 0,0 0.0524206,-0.457008 0.073885,-0.639402 0.0791702,0.150898 0.953062,1.81024 1.28689,2.49397 0,0 0.37773,0.778004 0.37773,0.778004 0,0 0.126306,0 0.126306,0 0,0 0.0106783,-0.025671 0.0106783,-0.025671 0.388948,-0.892552 0.936991,-1.91184 1.68771,-3.25385 0.106459,0.799899 0.247218,2.3983 0.32477,3.31436 0,0 0.00431445,0.0368886 0.00431445,0.0368886 0,0 0.711669,0 0.711669,0 0,0 -0.00636382,-0.0460568 -0.00636382,-0.0460568 -0.160498,-1.1264 -0.335556,-2.61758 -0.541032,-4.56048 0,0 -0.00377515,-0.0385065 -0.00377515,-0.0385065 0,0 -0.0374279,0 -0.0374279,0l-0.000215723 0z"/>
   <path id="_171205240" class="fil1" d="M69.571 5.89872c0,0 -0.208172,0 -0.208172,0 0,0 -2.12109,4.74298 -2.12109,4.74298 0,0 0.577382,0 0.577382,0 0,0 0.00744243,-0.0272889 0.00744243,-0.0272889 0.172254,-0.582667 0.394341,-1.13761 0.610063,-1.67217 0,0 0.0267496,-0.0663347 0.0395851,-0.101174 0.0524206,0 1.58707,0 1.64057,0 0.225754,0.515901 0.458087,1.10925 0.690312,1.77486 0,0 0.00959966,0.025671 0.00959966,0.025671 0,0 0.793536,0 0.793536,0 0,0 -2.03923,-4.74298 -2.03923,-4.74298l0 0.000107861zm-0.932677 2.5808c0.0433602,-0.104841 0.600356,-1.40834 0.666691,-1.56302 0.0663347,0.154673 0.631959,1.45807 0.677477,1.56302 -0.111852,0 -1.23447,0 -1.34417,0z"/>
   <path id="_171209080" class="fil1" d="M73.6501 8.34685c0.838406,-0.169558 1.33985,-0.646952 1.33985,-1.29229 0,-0.709512 -0.497672,-1.0579 -1.5244,-1.0579 0,0 -1.45548,0 -1.45548,0 0,0 0,4.64515 0,4.64515 0,0 0.668309,0 0.668309,0 0,0 0,-2.14568 0,-2.22647 0.0524206,0 0.165891,0 0.194797,0 0.0218958,0.0272889 0.520646,0.613731 0.520646,0.613731 -0.00215723,-0.00215723 0.787172,1.01929 0.787172,1.01929 0,0 0.432308,0.593453 0.432308,0.593453 0,0 0.0229745,0 0.0229745,0 0,0 0.852428,0 0.852428,0 0,0 -1.75933,-2.19713 -1.8385,-2.29496l-0.000107861 0zm-0.97183 -0.265447c0,-0.073885 0,-1.68123 0,-1.75512 0.275586,-0.0128355 0.702608,-0.0309562 0.934834,0.00593237 0.463372,0.075395 0.699373,0.346235 0.699373,0.801517 0,0.466608 -0.30665,0.80745 -0.822982,0.910781 -0.290578,0.0588923 -0.641559,0.0481061 -0.811225,0.0368886z"/>
   <path id="_171209056" class="fil1" d="M78.8565 5.99655c0,0 -3.48877,0 -3.48877,0 0,0 0,0.488504 0,0.488504 0,0 0.0455175,-0.00377515 0.0455175,-0.00377515 0.400813,-0.0422816 0.787172,-0.0791702 1.4159,-0.0813274 0,0.0829453 0,4.25664 0,4.25664 0,0 0.673702,0 0.673702,0 0,0 0,-4.17154 0,-4.25448 0.472001,0 0.925234,0.0272889 1.34848,0.0791702 0,0 0.0471354,0.00539306 0.0471354,0.00539306 0,0 0,-0.490122 0,-0.490122 0,0 -0.0417423,0 -0.0417423,0l-0.000215723 0z"/>
   <polygon id="_171221600" class="fil1" points="79.4494,10.6419 80.0817,10.6419 80.0817,5.99655 79.4494,5.99655 "/>
   <path id="_171224520" class="fil1" d="M84.5685 5.99655c0,0 0,3.35664 0,3.43797 -0.00215723,0 -0.00377515,0 -0.00539306,0 -0.0251317,-0.0278282 -3.1736,-3.43797 -3.1736,-3.43797 0,0 -0.321103,0 -0.321103,0 0,0 0,4.64515 0,4.64515 0,0 0.457548,0 0.457548,0 0,0 0,-3.51186 0,-3.59469 0.00377515,0 0.00539306,0 0.00755029,0 0.0245924,0.0278282 2.8745,3.17835 2.8745,3.17835 0,0 0.356913,0.416345 0.356913,0.416345 0,0 0.260593,0 0.260593,0 0,0 0,-4.64515 0,-4.64515 0,0 -0.457008,0 -0.457008,0z"/>
   <path id="_171224496" class="fil0" d="M23.8608 55.2238c-0.250454,-0.0149927 -0.463372,-0.0406637 -0.690312,-0.0406637 -0.251533,0 -0.477286,0.025671 -0.704226,0.0406637 -0.383663,-1.10277 -0.862567,-2.37478 -1.39443,-3.58186 0,0 -3.37164,0 -3.37164,0 -0.46499,1.16652 -0.943894,2.33347 -1.31472,3.58186 -0.186276,-0.0149927 -0.331781,-0.0406637 -0.492279,-0.0406637 -0.172362,0 -0.318946,0.025671 -0.464451,0.0406637 0,0 4.14317,-9.26874 4.14317,-9.26874 0,0 0.30611,0 0.30611,0 0,0 3.98267,9.26874 3.98267,9.26874l0.000107861 0zm84.1019 0c0,0 -0.400273,0 -0.400273,0 -0.145505,-0.184659 -0.41203,-0.503497 -0.689126,-0.809607 0,0 -5.73887,-6.34138 -5.73887,-6.34138 0,0 -0.130081,0 -0.130081,0 0,0 0,7.15088 0,7.15088 -0.133209,-0.0149927 -0.252611,-0.0406637 -0.374063,-0.0406637 -0.131591,0 -0.252611,0.025671 -0.371366,0.0406637 0,0 0,-9.07189 0,-9.07189 0,0 0.519029,0 0.519029,0 0,0 6.30708,6.82988 6.30708,6.82988 0,0 0.133748,0 0.133748,0 0,0 0,-6.82988 0,-6.82988 0.118755,0.0112176 0.237618,0.0390458 0.372445,0.0390458 0.120373,0 0.239776,-0.0278282 0.371366,-0.0390458 0,0 0,9.07189 0,9.07189l0.000107861 0.000107861zm-10.752 -9.07189c0.186276,0.0112176 0.386359,0.0390458 0.584285,0.0390458 0.185737,0 0.372445,-0.0278282 0.583745,-0.0390458 0,0 0,9.07189 0,9.07189 -0.211408,-0.0149927 -0.398116,-0.0406637 -0.583745,-0.0406637 -0.197925,0 -0.398116,0.025671 -0.584285,0.0406637 0,0 0,-9.07189 0,-9.07189zm-4.25556 9.09756c-0.213026,-0.0128355 -0.399734,-0.0406637 -0.586981,-0.0406637 -0.197925,0 -0.396498,0.0278282 -0.582667,0.0406637 0,0 0,-8.46139 0,-8.46139 -1.33985,0 -2.15,0.0791702 -2.91031,0.158448 0.0166106,-0.132669 0.041203,-0.265339 0.041203,-0.396498 0,-0.134287 -0.0245924,-0.252611 -0.041203,-0.398116 0,0 6.85394,0 6.85394,0 -0.0133748,0.145505 -0.0379672,0.263829 -0.0379672,0.398116 0,0.131159 0.0245924,0.263829 0.0379672,0.396498 -0.662916,-0.0791702 -1.59397,-0.158448 -2.77387,-0.158448 0,0 0,8.46139 0,8.46139l-0.000107861 0zm-10.7589 -9.09756c0,0 2.81561,0 2.81561,0 2.04667,0 2.94882,0.67478 2.94882,2.01517 0,1.53724 -1.37998,2.28213 -2.72199,2.51964 0,0 2.7359,3.46202 2.7359,3.46202 0,0 0.637784,0.742733 0.637784,0.742733 0,0 0.250454,0.332321 0.250454,0.332321 -0.277204,-0.0149927 -0.516871,-0.0406637 -0.769482,-0.0406637 -0.251533,0 -0.516871,0.025671 -0.759344,0.0406637 -0.290578,-0.411491 -0.554838,-0.785554 -0.836356,-1.15627 0,0 -1.56507,-2.02747 -1.56507,-2.02747 0,0 -1.06265,-1.24461 -1.06265,-1.24461 0,0 -0.502957,0 -0.502957,0 0,0 0,4.42835 0,4.42835 -0.213997,-0.0149927 -0.399195,-0.0406637 -0.585363,-0.0406637 -0.200083,0 -0.399195,0.025671 -0.585363,0.0406637 0,0 0,-9.07189 0,-9.07189zm1.17073 4.1367c0.184119,0.0128355 1.03374,0.0663347 1.71176,-0.0663347 0.972262,-0.197494 1.70054,-0.862567 1.70054,-1.89534 0,-0.916066 -0.466608,-1.51319 -1.4613,-1.67368 -0.490122,-0.077013 -1.39605,-0.0385065 -1.95089,-0.0106783 0,0 0,3.64614 0,3.64614l-0.000107861 -0.000107861zm-2.09057 4.93519c-0.254121,-0.0149927 -0.463372,-0.0406637 -0.692362,-0.0406637 -0.251533,0 -0.477286,0.025671 -0.700451,0.0406637 -0.386898,-1.10277 -0.866342,-2.37478 -1.39713,-3.58186 0,0 -3.3711,0 -3.3711,0 -0.466069,1.16652 -0.945512,2.33347 -1.3158,3.58186 -0.186276,-0.0149927 -0.331781,-0.0406637 -0.490661,-0.0406637 -0.172254,0 -0.320456,0.025671 -0.464451,0.0406637 0,0 4.14155,-9.26874 4.14155,-9.26874 0,0 0.305571,0 0.305571,0 0,0 3.98483,9.26874 3.98483,9.26874zm-4.46211 -7.53249l-1.44793 3.39353 2.92164 0 -1.4736 -3.39353 -0.000107861 0zm-5.65528 -1.5394c0.345695,3.27413 0.718572,6.53877 1.07548,9.07189 -0.239776,-0.0149927 -0.425944,-0.0406637 -0.62387,-0.0406637 -0.214105,0 -0.424866,0.025671 -0.62333,0.0406637 -0.224783,-2.66741 -0.494975,-5.5307 -0.680065,-6.84326 -1.54004,2.74496 -2.6824,4.86498 -3.47863,6.69722 0,0 -0.145505,0 -0.145505,0 0,0 -0.729897,-1.50046 -0.729897,-1.50046 -0.851888,-1.74757 -1.78079,-3.4727 -2.68348,-5.19676 -0.292196,2.58446 -0.650619,5.20959 -0.650619,6.84326 -0.171284,-0.0149927 -0.318946,-0.0406637 -0.462833,-0.0406637 -0.172794,0 -0.320456,0.025671 -0.478904,0.0406637 0.343538,-2.13501 1.14031,-7.68016 1.27352,-9.07189 0,0 0.345695,0 0.345695,0 1.06265,2.11095 2.33779,4.60115 3.75681,6.94972 1.265,-2.27091 2.48599,-4.57494 3.82638,-6.94972 0,0 0.279361,0 0.279361,0l-0.000107861 0zm-14.9654 9.07189c0,0 -0.400813,0 -0.400813,0 -0.144426,-0.184659 -0.410952,-0.503497 -0.688586,-0.809607 0,0 -5.73833,-6.34138 -5.73833,-6.34138 0,0 -0.13213,0 -0.13213,0 0,0 0,7.15088 0,7.15088 -0.132669,-0.0149927 -0.25315,-0.0406637 -0.372445,-0.0406637 -0.131591,0 -0.250454,0.025671 -0.371366,0.0406637 0,0 0,-9.07189 0,-9.07189 0,0 0.519029,0 0.519029,0 0,0 6.30654,6.82988 6.30654,6.82988 0,0 0.134287,0 0.134287,0 0,0 0,-6.82988 0,-6.82988 0.118755,0.0112176 0.23805,0.0390458 0.369749,0.0390458 0.118755,0 0.239776,-0.0278282 0.374063,-0.0390458 0,0 0,9.07189 0,9.07189l0 0.000107861zm-19.0469 -4.53708c0,-2.90492 2.16337,-4.73177 4.91373,-4.73177 2.49774,0 5.03248,1.34891 5.03248,4.53266 0,2.95691 -2.09693,4.89604 -5.05654,4.89604 -2.93545,0 -4.88957,-1.8578 -4.88957,-4.69704l-0.000107861 0.000107861zm7.80959 -3.01041c-0.662916,-0.834739 -1.69892,-1.28635 -2.76427,-1.28635 -2.33455,0 -3.74289,1.76418 -3.74289,4.4551 0,2.69524 1.64596,4.09819 3.62522,4.09819 2.80278,0 3.81193,-2.89057 3.71776,-4.34864 0,-1.09857 -0.145505,-2.02963 -0.835817,-2.9184l0 0.000107861zm-10.4294 7.57316c-0.213457,-0.0128355 -0.398116,-0.0406637 -0.584824,-0.0406637 -0.200191,0 -0.400273,0.0278282 -0.583745,0.0406637 0,0 0,-8.46139 0,-8.46139 -1.34201,0 -2.15377,0.0791702 -2.9088,0.158448 0.0128355,-0.132669 0.0395851,-0.265339 0.0395851,-0.396498 0,-0.134287 -0.0267496,-0.252611 -0.0395851,-0.398116 0,0 6.85178,0 6.85178,0 -0.0144534,0.145505 -0.0395851,0.263829 -0.0395851,0.398116 0,0.131159 0.0251317,0.263829 0.0395851,0.396498 -0.664641,-0.0791702 -1.59246,-0.158448 -2.77441,-0.158448 0,0 0,8.46139 0,8.46139zm-9.73481 -1.81768c0.516871,0.849731 1.11345,1.38052 2.15216,1.38052 1.07387,0 1.84443,-0.890395 1.84443,-1.93697 0,-2.46679 -4.15708,-1.37728 -4.15708,-4.37647 0,-1.71068 1.35485,-2.5438 2.94893,-2.5438 0.635627,0 1.40834,0.196955 1.89685,0.634009 -0.158988,0.344617 -0.250993,0.714905 -0.356913,1.08735 0,0 -0.131591,0 -0.131591,0 -0.279361,-0.716954 -0.863106,-1.15368 -1.6465,-1.15368 -0.917145,0 -1.67271,0.611574 -1.67271,1.55018 0,2.44273 4.18167,1.46023 4.18167,4.28608 0,1.89685 -1.47684,3.02486 -3.28114,3.02486 -0.649001,0 -1.71176,-0.278282 -2.16337,-0.770561 0.13062,-0.385281 0.197925,-0.783397 0.251533,-1.18151 0,0 0.133748,0 0.133748,0zm-5.39317 -5.74049l-1.44577 3.39353 2.92002 0 -1.47414 -3.39353 -0.000107861 0z"/>
  </g>
 </g>
</svg>
