<svg xmlns="http://www.w3.org/2000/svg" width="434.014" height="194.069" viewBox="0 0 123.86 55.3839" shape-rendering="geometricPrecision" text-rendering="geometricPrecision" image-rendering="optimizeQuality" fill-rule="evenodd" clip-rule="evenodd"><defs><style>.fil0{fill:#000}.fil1{fill:#fff}.fil2{fill:url(#id0)}</style><linearGradient id="id0" gradientUnits="userSpaceOnUse" x1="51.459" y1="-2.195" x2="72.395" y2="18.741"><stop offset="0" stop-color="#396"/><stop offset="1" stop-color="#004f32"/><stop offset="1" stop-color="#004f32"/></linearGradient></defs><g id="_0"><g id="_42253856"><path id="_170829896" class="fil0" d="M61.93 22.792a.598.598 0 0 0-.395.173c-.01.008-4.018 3.833-4.018 3.833-1.478 1.426-3.44.83-3.65.76l-17.134-4.675c-3.269-.987-3.919-2.05-4.419-3.343 0 0-.29-.803-1.002-1.014L10.368 12.38c-.855-.264-1.325-.505-1.66-1.156l-1.154-2.03c-.255-.485-.717-.536-.744-.54-1.584-.214-2.048-1.097-2.244-1.473L3.63 5.54c-.292-.51-.71-.552-.723-.554-.9-.057-1.329-.284-1.701-.895L.29 2.564C-.16 1.734-.004 1.141.203.79.64.066 1.438.01 1.758 0h50.077c1.418 0 2.564.43 3.41 1.28.61.606 1.028 1.397 1.245 2.35.004.022.062.221.491.221h9.898c.429 0 .488-.199.491-.222.217-.952.636-1.743 1.244-2.35C69.461.43 70.607 0 72.025 0h50.077c.32.011 1.119.066 1.555.789.207.352.362.946-.087 1.775l-.917 1.527c-.372.611-.801.838-1.701.895-.013.002-.431.045-.723.553l-.935 1.64c-.196.377-.66 1.26-2.244 1.474-.027.004-.489.055-.744.54l-1.153 2.03c-.336.65-.806.892-1.661 1.156l-20.944 6.147c-.712.21-1.002 1.014-1.002 1.014-.5 1.293-1.15 2.356-4.42 3.343l-17.134 4.675c-.21.07-2.171.666-3.65-.76 0 0-4.007-3.825-4.017-3.833a.598.598 0 0 0-.395-.173z"/><path id="_170829840" class="fil1" d="M68.28 3.832c.175-.776.51-1.412.991-1.893.666-.667 1.593-1.006 2.752-1.006h23.005c-.79.592-1.206 1.34-1.234 1.39-.266.5-.6 1.083-.995 1.738h-24.6c.05-.09.081-.229.081-.229zm54.47-1.714l-.898 1.493c-.168.277-.272.402-.962.446l-27.244.004c.305-.516.567-.984.786-1.392.007-.014.972-1.734 2.686-1.734l24.957-.002c.262.01.602.04.782.337.022.04.073.123.073.273 0 .132-.042.32-.18.575zm-3.332 2.96l-.95 1.67c-.13.248-.33.63-.966.849-.532.132-1.589.048-1.955.003L92.374 6.06c.3-.443.578-.87.83-1.276h26.414a2.41 2.41 0 0 0-.2.294zm-3.94 3.68c.007-.007-.91 1.608-1.101 1.943-.047.063-.308.346-1.157.234L91.015 7.956c.304-.398.593-.793.863-1.174l23.588 1.565c.035.004.134.015.276.028-.097.11-.185.236-.263.383zm-7.636 4.31c-.836.221-2.471-.03-3.04-.147L89.546 9.785c.334-.393.654-.782.958-1.167l22.3 2.993-4.961 1.457zm-7.564 2.22c-1.073.287-2.473-.178-2.486-.181l-.017-.006-.004-.002-10.212-3.15c.506-.514.987-1.025 1.44-1.537l15.658 3.218c.035.005.355.072.806.134l-5.185 1.523zm-7.977 2.343c-.725.197-1.794-.222-2.149-.4l-5.538-2.593a37.568 37.568 0 0 0 2.363-2.11l10.59 3.268c.02.008.214.07.508.137l-5.774 1.698zm-1.635 1.598c-.308.79-.631 1.605-2.803 2.422-.897.278-1.964-.515-1.973-.524l-5.176-3.705c1.119-.691 2.21-1.45 3.27-2.28l5.851 2.739c.032.017.636.321 1.367.457-.35.399-.508.81-.536.89zm-8.185 3.956l-.816.22c-.686.165-1.524-.515-1.792-.798 0 0-1.317-1.369-3.008-3.135a34.136 34.136 0 0 0 3.171-1.642l5.424 3.88c.022.018.332.25.787.448l-3.766 1.027zM75.31 25.14c-.573.09-1.237-.85-1.43-1.2l-1.636-2.77a33.582 33.582 0 0 0 3.913-1.39l3.19 3.33c.029.028.382.394.893.684l-4.93 1.345zm-5.43 1.48c-.386.088-.711.05-.99-.12-.6-.367-.8-1.211-.812-1.26l-.834-3.011a36.13 36.13 0 0 0 4.277-.858l1.73 2.93c.06.105.41.717.937 1.145L69.88 26.62zm-3.52-1.093s-2.32-2.214-3.107-2.963a40.12 40.12 0 0 0 3.264-.245l.853 3.079c.024.107.195.781.669 1.318-.654-.186-.852-.38-1.679-1.189zm-4.068-3.667v-9.379h1.498l2.53 9.132c-1.317.151-2.66.234-4.028.247zm-4.754-.247l2.532-9.132h1.497v9.377a38.529 38.529 0 0 1-4.03-.245zm-.665 4.509a2.374 2.374 0 0 1-1.054.594c.478-.539.644-1.215.669-1.32l.853-3.073c1.07.123 2.16.204 3.264.241-.884.84-3.732 3.558-3.732 3.558zm-1.093-.888c0 .009-.197.89-.812 1.266-.28.17-.604.208-.99.12l-4.308-1.174c.526-.43.881-1.042.942-1.155-.002.003.73-1.234 1.722-2.917 1.394.368 2.82.654 4.28.855l-.834 3.005zm-7.232-.094l-4.93-1.346c.511-.291.866-.658.893-.686l3.19-3.327a33.95 33.95 0 0 0 3.911 1.391l-1.629 2.76c-.198.358-.863 1.298-1.435 1.207zm-6.356-1.735l-4.581-1.248c.457-.2.769-.433.795-.454l5.416-3.874a34.5 34.5 0 0 0 3.173 1.642l-3.01 3.136c-.268.282-1.106.962-1.793.798zM35.99 21.65c-2.164-.817-2.488-1.63-2.796-2.418a2.96 2.96 0 0 0-.538-.895 5.677 5.677 0 0 0 1.378-.462c-.006.001 2.926-1.368 5.843-2.734 1.056.83 2.147 1.59 3.267 2.28l-5.17 3.698c-.016.016-1.088.813-1.984.53zm-4.43-4.02l-5.777-1.698a5.14 5.14 0 0 0 .517-.14l10.583-3.265c.733.712 1.52 1.419 2.363 2.109l-5.53 2.588c-.366.184-1.432.603-2.157.406zm-7.975-2.342c-1.702-.5-3.498-1.026-5.19-1.524.451-.063.774-.13.807-.137-.001.002 11.055-2.27 15.659-3.216.455.51.932 1.023 1.438 1.537l-10.224 3.154c-.023.007-1.417.47-2.49.186zm-7.562-2.219c-2.3-.678-4.17-1.226-4.967-1.459l22.302-2.993c.305.383.623.772.957 1.165l-15.26 3.138c-.566.117-2.194.368-3.032.15v-.001zm-5.383-2.135c-.843.112-1.108-.166-1.157-.232l-1.11-1.954a1.919 1.919 0 0 0-.257-.374c.142-.013 23.868-1.593 23.868-1.593.27.381.557.774.861 1.174L10.64 10.935zM6.359 7.597c-.637-.22-.838-.601-.968-.849-.39-.66-.9-1.65-1.152-1.964h26.417c.254.405.53.833.83 1.277L8.312 7.6c-.364.044-1.422.128-1.952-.004zM2.976 4.06c-.636-.048-.772-.123-.972-.452.002.002-.83-1.382-.897-1.491C.97 1.864.924 1.675.93 1.543c.015-.34.246-.601.853-.61l24.96.002c1.689 0 2.685 1.734 2.685 1.734.22.408.481.876.787 1.392H2.976zM51.835.933c1.16 0 2.085.339 2.752 1.006.481.481.815 1.117.993 1.893 0 0 .035.133.081.229h-24.6a64.03 64.03 0 0 1-.995-1.738 4.767 4.767 0 0 0-1.234-1.39h23.003zm35.622 4.804v-.953h4.89c-.248.39-.52.8-.81 1.222l-4.08-.27zm0 1.743V6.49l3.571.236c-.264.366-.545.74-.84 1.122l-2.73-.367zm0 1.877V8.21l2.209.297c-.297.367-.608.738-.933 1.112l-1.276-.262zm0 .74l.721.147c-.232.256-.474.516-.72.772v-.92zm-7.451 2.385h5.97c-.609.605-2.045 1.775-2.092 1.814-1.452-.68-2.868-1.34-3.878-1.814zm-6.196 0h4.486l4.949 2.315a35.336 35.336 0 0 1-3.173 2.168l-6.262-4.483zm-3.65 0h2.407l6.821 4.885a33.003 33.003 0 0 1-3.056 1.548c-2.247-2.34-4.952-5.163-6.172-6.433zm-3.049 0h2.044l6.464 6.74a33.46 33.46 0 0 1-3.756 1.304l-4.752-8.044zm-.841 0l4.868 8.24a35.047 35.047 0 0 1-4.09.802l-2.507-9.042h1.729zm-8.682 0h1.73l-2.508 9.042a35.403 35.403 0 0 1-4.09-.8c1.824-3.086 4.258-7.208 4.868-8.242zm-2.886 0h2.045l-4.752 8.044a32.82 32.82 0 0 1-3.757-1.307c2.592-2.7 5.711-5.952 6.464-6.737zm-3.41 0h2.406l-6.17 6.433a33.17 33.17 0 0 1-3.06-1.548l6.823-4.885zm-11.317 1.814c-.055-.045-1.485-1.246-2.092-1.814h5.969l-3.877 1.814zm5.587-1.814h4.485l-6.262 4.481a34.653 34.653 0 0 1-3.171-2.166l4.948-2.315zm-9.167-2.386v.913c-.245-.254-.483-.51-.713-.765l.713-.148zm0-1.886v1.147l-1.27.262a44.568 44.568 0 0 1-.93-1.112l2.2-.297zm0-1.721v.991l-2.723.367a41.91 41.91 0 0 1-.838-1.122l3.561-.236zm0-.752l-4.069.269a36.758 36.758 0 0 1-.812-1.222h4.881v.953z"/><path id="_170831360" class="fil2" d="M37.132 11.757l-.011-.01v-6.96h49.613v6.963c-.002.004-.004.004-.006.005l-49.596.003z"/><path id="_171137640" class="fil1" d="M40.417 5.899h-.207l-2.12 4.743h.574l.01-.028c.171-.577.392-1.13.607-1.66l.044-.113h1.64c.221.505.448 1.084.691 1.775l.01.026h.792l-2.04-4.743zm-.931 2.58c.043-.104.6-1.408.666-1.562.065.154.632 1.458.677 1.563h-1.343z"/><path id="_171199256" class="fil1" d="M42.687 10.305l.017.018c.25.273.815.4 1.12.4.994 0 1.69-.642 1.69-1.563 0-.763-.577-.988-1.136-1.21-.496-.197-.968-.38-.968-.943 0-.428.338-.737.8-.737.37 0 .649.195.79.552l.01.026h.127l.198-.599-.022-.02c-.27-.244-.686-.33-.982-.33-.927 0-1.526.518-1.526 1.321 0 .82.61 1.057 1.148 1.27.486.188.942.37.942.932 0 .521-.39.932-.885.932-.453 0-.755-.195-1.048-.674l-.011-.019h-.126l-.138.644z"/><path id="_171234112" class="fil1" d="M49.258 5.997H45.77v.488l.045-.004c.4-.042.787-.079 1.418-.081v4.257h.67V6.402c.473 0 .926.027 1.35.08l.046.005v-.49h-.041z"/><path id="_171242176" class="fil1" d="M51.66 5.899c-1.479 0-2.514.997-2.514 2.422 0 1.438 1.007 2.402 2.502 2.402 1.545 0 2.586-1.006 2.586-2.503 0-1.604-1.293-2.321-2.573-2.321zm1.24 3.996c-.33.349-.743.526-1.234.526-1.083 0-1.783-.793-1.783-2.019 0-1.358.707-2.2 1.844-2.2.536 0 1.042.235 1.355.63.343.438.413.896.413 1.443.002.03.004.063.004.094 0 .446-.181 1.079-.6 1.526z"/><path id="_171242152" class="fil1" d="M58.88 5.997h-.416v3.438h-.008c-.024-.028-3.173-3.438-3.173-3.438h-.32v4.645h.456V7.047h.01l2.87 3.178.357.417h.265V5.997h-.041z"/><path id="_171249360" class="fil1" d="M66.385 5.997h-.164l-1.125 2.04s-.712 1.298-.777 1.414C63.625 8.293 63 7.075 62.468 6.02l-.011-.022h-.236l-.004.038c-.066.686-.466 3.482-.64 4.56l-.01.047h.563v-.04c0-.655.117-1.63.24-2.665l.074-.64c.08.152.953 1.811 1.287 2.495l.378.778h.126l.01-.026c.39-.892.938-1.912 1.688-3.254.107.8.248 2.399.325 3.315l.004.037h.712l-.006-.046c-.16-1.127-.336-2.618-.541-4.56l-.004-.04h-.037z"/><path id="_171205240" class="fil1" d="M69.571 5.899h-.208l-2.121 4.743h.577l.008-.028c.172-.582.394-1.137.61-1.672l.04-.1h1.64c.226.515.458 1.108.69 1.774l.01.026h.793l-2.039-4.743zm-.933 2.58c.044-.104.6-1.408.667-1.562l.677 1.563h-1.344z"/><path id="_171209080" class="fil1" d="M73.65 8.347c.839-.17 1.34-.647 1.34-1.292 0-.71-.498-1.058-1.524-1.058H72.01v4.645h.668V8.415h.195c.022.028.52.614.52.614l.788 1.02.432.593h.876L73.65 8.347zm-.972-.266V6.326c.276-.013.703-.03.935.006.463.076.7.346.7.802 0 .466-.307.807-.824.91-.29.06-.641.049-.81.037z"/><path id="_171209056" class="fil1" d="M78.856 5.997h-3.488v.488l.045-.004c.401-.042.787-.079 1.416-.081v4.257h.674V6.402c.472 0 .925.027 1.348.08l.047.005v-.49h-.041z"/><path id="_171221600" class="fil1" d="M79.45 10.642h.632V5.997h-.633z"/><path id="_171224520" class="fil1" d="M84.569 5.997v3.438h-.006L81.39 5.997h-.322v4.645h.458V7.047h.008l2.874 3.178.357.417h.26V5.997h-.456z"/><path id="_171224496" class="fil0" d="M23.86 55.224c-.25-.015-.463-.04-.69-.04-.251 0-.477.025-.704.04a49.095 49.095 0 0 0-1.394-3.582H17.7c-.465 1.166-.944 2.333-1.315 3.582-.186-.015-.331-.04-.492-.04-.172 0-.319.025-.464.04l4.143-9.269h.306l3.983 9.269zm84.103 0h-.4a17.266 17.266 0 0 0-.69-.81l-5.739-6.341h-.13v7.15c-.133-.014-.252-.04-.374-.04-.131 0-.252.026-.371.04v-9.071h.519l6.307 6.83h.134v-6.83c.119.011.237.039.372.039.12 0 .24-.028.372-.04v9.073zM97.21 46.152c.186.011.386.039.584.039.186 0 .372-.028.584-.04v9.073c-.212-.015-.398-.04-.584-.04-.198 0-.398.025-.584.04v-9.072zm-4.256 9.097c-.213-.012-.4-.04-.587-.04-.198 0-.396.028-.583.04v-8.46c-1.34 0-2.15.078-2.91.158.017-.133.041-.266.041-.397 0-.134-.024-.253-.04-.398h6.853c-.013.145-.038.264-.038.398 0 .131.025.264.038.397a23.28 23.28 0 0 0-2.774-.159v8.461zm-10.759-9.097h2.816c2.047 0 2.949.675 2.949 2.015 0 1.537-1.38 2.282-2.722 2.52l2.736 3.462.637.742.25.333c-.276-.015-.516-.04-.769-.04-.251 0-.517.025-.759.04-.29-.412-.555-.786-.836-1.156l-1.565-2.028-1.063-1.245h-.503v4.429c-.214-.015-.4-.04-.585-.04-.2 0-.4.025-.586.04v-9.072zm1.171 4.137c.184.012 1.034.066 1.712-.067.972-.197 1.7-.862 1.7-1.895 0-.916-.466-1.513-1.461-1.674-.49-.077-1.396-.038-1.95-.01v3.646h-.001zm-2.09 4.935c-.255-.015-.464-.04-.693-.04-.251 0-.477.025-.7.04a51.22 51.22 0 0 0-1.398-3.582h-3.37c-.467 1.166-.946 2.333-1.316 3.582-.187-.015-.332-.04-.491-.04-.172 0-.32.025-.465.04l4.142-9.269h.306l3.984 9.269zm-4.463-7.533l-1.448 3.394h2.922l-1.474-3.394zm-5.655-1.54c.346 3.275.719 6.54 1.075 9.073-.24-.015-.425-.04-.623-.04-.214 0-.425.025-.624.04-.224-2.668-.495-5.53-.68-6.843-1.54 2.744-2.682 4.865-3.478 6.697h-.146l-.73-1.5c-.852-1.748-1.78-3.473-2.683-5.197-.292 2.584-.65 5.21-.65 6.843-.172-.015-.32-.04-.464-.04-.173 0-.32.025-.479.04.344-2.135 1.14-7.68 1.274-9.072h.346c1.062 2.11 2.337 4.601 3.756 6.95 1.265-2.271 2.486-4.575 3.827-6.95h.28-.001zm-14.965 9.073h-.401a16.267 16.267 0 0 0-.689-.81l-5.738-6.341h-.132v7.15c-.133-.014-.253-.04-.373-.04-.131 0-.25.026-.371.04v-9.071h.519l6.307 6.83h.134v-6.83c.119.011.238.039.37.039.118 0 .24-.028.374-.04v9.073zm-19.047-4.537c0-2.905 2.163-4.732 4.913-4.732 2.498 0 5.033 1.349 5.033 4.533 0 2.957-2.097 4.896-5.057 4.896-2.935 0-4.89-1.858-4.89-4.697zm7.81-3.01c-.664-.835-1.7-1.287-2.765-1.287-2.335 0-3.743 1.764-3.743 4.455 0 2.695 1.646 4.098 3.625 4.098 2.803 0 3.812-2.89 3.718-4.348 0-1.099-.145-2.03-.836-2.919zm-10.43 7.572c-.214-.012-.398-.04-.585-.04-.2 0-.4.028-.584.04v-8.46c-1.342 0-2.153.078-2.908.158.012-.133.04-.266.04-.397 0-.134-.028-.253-.04-.398H37.3c-.014.145-.04.264-.04.398 0 .131.026.264.04.397a23.285 23.285 0 0 0-2.774-.159v8.461zm-9.735-1.817c.517.85 1.114 1.38 2.152 1.38 1.074 0 1.845-.89 1.845-1.937 0-2.466-4.157-1.377-4.157-4.376 0-1.71 1.354-2.544 2.949-2.544.635 0 1.408.197 1.896.634-.159.345-.25.715-.357 1.087h-.131c-.28-.717-.863-1.153-1.647-1.153-.917 0-1.672.611-1.672 1.55 0 2.443 4.181 1.46 4.181 4.286 0 1.897-1.477 3.025-3.28 3.025-.65 0-1.713-.278-2.164-.77.13-.386.198-.784.251-1.182h.134zm-5.393-5.74l-1.446 3.393h2.92L19.4 47.69z"/></g></g></svg>