<svg xmlns="http://www.w3.org/2000/svg" version="1" width="400" height="130" viewBox="-1.020675 -1.020675 42.320332 13.748681"><path d="M23.83.044c-1.26-.606-2.406-.803-3.766-.803a9.52 9.52 0 0 0-3.69.758c-1.218-.419-4.134-.17-4.772-.156-.73.017-3.749-.164-4.462-.164-.713 0-2.187.023-3.3.099C2.149-.107.235-.271.004-.327c-.112-.028-.196.04-.196.04-.05.065-.563.638-.563.638l.05.165 1.21.607-.165.787 1.178.525s0 .655.066.737c.066.084 1.244.378 1.244.378s.118.766.2.836c.138.122 1.377.247 1.377.247s.38.689.546.754c.167.066 1.494.263 1.742.197 0 0 .11.573.345.677.251.11 1.696.062 1.696.062s.179.565.466.654c.27.082 1.524-.245 1.524-.245s.184.419.366.492c.278.113 1.292-.243 1.292-.243.521 2.124 2.258 3.627 4.303 4.412l.286.569.673-.252.351.533.614-.33.418.502.552-.395.486.446.484-.459.552.4.417-.5.615.33.352-.528.675.256.278-.57c1.896-.727 3.652-2.241 4.222-4.161.178.078.514.192.792.203 0 0 .317-.113.446-.51 0 0 1.1.34 1.301.28 0 0 .185-.01.356-.567.112.051.206.024.373.06.857.184 1.23.085 1.23.085s.192-.032.344-.746c.076.011.13.02.188.017 0 0 1.272.036 1.492-.073 0 0 .201-.05.273-.764.525.077.996.111 1.378.068 0 0 .428-.145.592-.977.289-.018 1.14-.073 1.245-.197 0 0 .21-.096.21-.842.332-.022.873-.09 1.069-.296 0 0 .206-.236.116-.805.786-.163 1.059-.416 1.059-.416-.005-.275-.25-.78-.25-.78s.88-.336 1.093-.506l.07-.126s-.533-.63-.616-.648c-.189-.038-1.89.205-2.989.205-1.1 0-3.083-.165-3.9-.165-.816 0-3.366.182-4.566.182-1.2 0-1.666-.182-2.549-.182-.549 0-1.81.034-2.586.31" fill="#595959" fill-rule="evenodd"/><path d="M38.256 1.217l-.853.001c-.486.023-1.007.009-1.508.017-.66.01-2.18.022-2.257.028h-.945l-1.545-.002c-.09.004-.634.018-.805.017-.077-.002-.216-.01-.292 0-.127.02-.333.284-.084.284a2.2 2.2 0 0 0 .11-.017c.07-.022.16.004.232.009l.4.029 1.05.071.754.06c1.84.115 3.657.278 5.563.278.44 0 .834-.191.973-.235.059-.019.183-.033.23-.074.098-.085-.015-.393-.11-.45-.064-.039-.842-.02-.913-.016M1.253 1.355c-.097.036-.139.084-.152.189-.01.077.049.254.238.35.134.061.646.297.778.325.121.026 7.823-.42 7.836-.421.104-.047.386-.125.362-.288-.007-.046-.081-.092-.123-.109-.087-.032-1.036.053-1.106.054-.654 0-7.656-.1-7.833-.1M28.247 1.47a.213.213 0 0 0-.205.14c-.028.074-.037.176.028.228.068.054.173.069.258.09l.411.105c.158.039.29.06.474.079.141.013.264-.018.3-.13.042-.13.027-.218-.076-.276-.048-.026-.246-.082-.535-.134a9.477 9.477 0 0 0-.655-.102M11.731 1.464c-.269.082-.546.122-.826.174-.11.019-.254.024-.343.086a.193.193 0 0 0-.075.116c-.01.045-.004.098.024.13.04.049.3.16.468.131.266-.063.498-.147.746-.227.086-.024.198-.039.26-.106.068-.074.023-.157-.03-.22-.056-.064-.143-.103-.224-.084M29.932 1.886c-.032.015-.064.024-.09.05-.087.087-.108.232.06.232.069-.02.254.007.32.017l.365.056 1.48.23c.595.097 1.192.195 1.797.26.425.048.847.121 1.276.162.662.062 1.314.154 2.014.154l.127-.006a.96.96 0 0 1 .075-.005c.017-.003.036-.004.053-.006l.058-.007.063-.004.053-.006.04-.007.036-.005.033-.006.036-.006.189-.049c.222-.067.335-.159.412-.376.017-.049.038-.118-.001-.162-.035-.039-.09-.046-.142-.048l-.835-.001-1.138-.041c-1.405-.065-2.801-.177-4.193-.265l-1.416-.109c-.195-.015-.468-.052-.672-.052M12.064 2.078c-.258.05-.487.159-.73.24-.1.032-.23.055-.303.136a.19.19 0 0 0-.041.18c.01.046.03.115.063.15a.57.57 0 0 0 .352.141.788.788 0 0 0 .206-.038l.568-.303c.065-.034.148-.044.201-.099.181-.184-.162-.433-.316-.407M27.892 2.17c-.108.036-.354.168-.248.286.042.048.176.092.233.112.072.03.067.04.138.07l.238.11c.148.07.227.148.414.148.22-.004.32.029.428-.177.03-.053.01-.113-.021-.154-.052-.066-.344-.171-.47-.214-.25-.083-.642-.199-.712-.18M10.15 2.112a88.33 88.33 0 0 1-1.908.168c-.247.02-4.57.286-4.948.291-.07.005-.984-.004-1.079.075-.049.042.006.286.053.33.088.085.249.11.364.141.336.093.638.2 1.027.2.026-.003 6.786-.855 6.909-.855.018-.017.035-.029.032-.056-.006-.061-.242-.247-.3-.273a.365.365 0 0 0-.15-.02M29.532 2.387c-.067.025-.146.059-.13.15.012.065.04.168.095.21.094.07.303.098.422.129.332.085.665.17.998.253.49.125.985.228 1.485.345.604.142 1.228.266 1.85.366.343.054.687.115 1.04.16.181.023.358.056.55.056a1.03 1.03 0 0 0 .053-.006l.099-.005.07-.006.051-.006a3.43 3.43 0 0 0 .15-.01l.077-.007.057-.006.053-.005.052-.006.052-.006.046-.006.035-.005.035-.006.034-.006.036-.006c.068-.03.142-.03.205-.072.087-.058.295-.343.185-.433-.088-.073-.562-.058-.71-.07-.449-.035-.896-.089-1.339-.13-.637-.06-1.27-.171-1.897-.251a59.943 59.943 0 0 1-2.21-.336l-1.02-.173c-.148-.035-.258-.112-.424-.112M10.058 2.82l-1.131.194c-.597.108-2.943.455-3.522.519-.374.041-.748.084-1.131.114-.701-.033-.825.08-.736.266.038.08.076.185.153.242.093.07.874.226 1.177.226.363.012 1.976-.241 2.242-.306.416-.1 3.578-.942 3.66-.995.062-.042.01-.23-.067-.326-.068-.083-.47.034-.645.065M12.61 2.737c-.113.005-.884.48-.94.551-.037.049-.036.107-.018.166.015.047.028.095.065.131.084.084.273.087.4.087l.105-.04c.067-.038.122-.095.185-.143.13-.105.23-.179.36-.283.066-.046.219-.084.261-.156.11-.188-.288-.316-.418-.313M27.391 2.737c-.128.007-.364.085-.385.253-.006.042.001.086.033.112.058.048.512.274.657.366.11.069.195.152.341.152.197-.006.267-.054.315-.083.085-.052.187-.18.113-.28-.065-.09-.203-.128-.297-.17-.104-.05-.208-.098-.313-.146-.07-.035-.35-.204-.464-.204M29.276 3.07l-.204.09c-.094.036-.328.086-.272.226.046.115 1.15.438 1.49.558.881.302 1.635.56 2.565.762.675.147 1.394.313 2.141.313l.092-.005.064-.006.035-.005c.051-.026.101-.037.15-.07.074-.053.116-.132.174-.195.053-.058.134-.103.166-.173.013-.033.015-.075-.007-.104-.025-.032-.063-.041-.1-.051l-.516-.07-1.004-.16c-.45-.074-.9-.17-1.34-.265a56.735 56.735 0 0 1-2.082-.479l-.957-.248-.203-.061c-.065-.023-.118-.052-.192-.057M13.287 3.275c-.115 0-.45.338-.574.437-.059.049-.204.174-.234.245-.056.138.031.212.122.278.084.062.34.022.453-.062.083-.061.616-.534.648-.589.155-.27-.236-.309-.415-.309M11.142 3.276l-.137.038c-.12.05-2.893.9-4.208 1.177-.38.08-.763.131-1.154.188-.12.018-.374.001-.458.071-.054.048.106.302.152.37.116.171 1.476.228 2.08.07.246-.07 3.848-1.317 3.922-1.41.075-.096.057-.335.046-.378-.026-.11-.133-.126-.243-.126M26.735 3.294c-.109.028-.277-.018-.345.083-.037.054-.045.141-.01.194.042.063.63.539.7.574.092.047.212.044.328.044.097-.002.298-.083.274-.235a.186.186 0 0 0-.065-.105c-.09-.08-.2-.132-.296-.199-.084-.055-.177-.125-.26-.18-.076-.057-.142-.099-.218-.155a.279.279 0 0 0-.108-.021M25.86 3.752c-.1.024-.212.065-.193.195.002.025.156.14.214.197.132.131.23.359.398.448.117.063.29.14.421.072a.19.19 0 0 0 .095-.273c-.12-.154-.284-.273-.424-.411-.068-.067-.131-.164-.216-.203-.081-.037-.197-.025-.296-.025M13.948 3.773c-.088.051-.199.192-.269.267-.052.055-.102.11-.154.163-.103.105-.32.284-.135.412.076.053.204.097.288.072.068-.03.131-.037.19-.086.059-.049.098-.12.138-.182.046-.069.201-.284.24-.318.08-.07.198-.123.12-.264-.036-.064-.333-.111-.418-.064M28.649 3.78c-.079.034-.353.13-.349.207.009.113.174.163.274.197.076.026.144.068.213.104l.428.224.68.338c.328.17.663.328 1.005.469.35.144.71.317 1.097.387.328.06.71.042 1.072.042l.087-.006.146-.005.075-.006c.015-.003.031-.004.047-.006l.046-.006.034-.006.105-.045c.081-.056.27-.25.19-.35-.074-.09-.39-.112-.514-.14a27.923 27.923 0 0 1-.807-.187c-.959-.237-1.88-.546-2.796-.854-.236-.085-.472-.17-.708-.257-.105-.038-.206-.095-.325-.1M11.64 4.01c-.179.008-.827.378-1.085.485-.724.304-1.478.562-2.233.81-.2.06-.4.122-.601.18-.126.036-.275.056-.387.117-.033.017-.061.047-.066.084-.012.067.045.119.092.154.058.041.113.09.18.115.104.037.226.035.348.04.286.014.853.102 1.224-.058.341-.147 1.783-.898 2.163-1.101.18-.1.967-.463.957-.607-.018-.227-.387-.219-.591-.219M27.924 4.246c-.065.042-.237.171-.215.26.026.097.346.243.399.281.49.364.977.724 1.488 1.052.281.18.567.368.88.484.304.114.668.153 1.028.153l.064-.005.09-.037c.085-.051.285-.22.224-.327a.148.148 0 0 0-.068-.057l-.222-.075-.385-.139c-.398-.158-.785-.33-1.171-.512a31.606 31.606 0 0 1-1.559-.794l-.478-.272-.04-.01-.035-.002M27.159 4.578a.198.198 0 0 0-.079.06c-.037.051-.05.121-.074.18-.023.053-.047.104-.071.156a.142.142 0 0 0 .004.09c.03.061.112.063.166.09a.574.574 0 0 1 .127.09c.358.333.694.684 1.055 1 .135.117.252.263.405.344.122.065.27.097.409.132.214.054.421.13.662.13.088-.044.348-.123.304-.263a.117.117 0 0 0-.007-.016l-.018-.026c-.088-.096-.22-.145-.326-.211-.199-.122-.392-.25-.587-.377-.475-.31-.925-.664-1.383-1.003-.169-.126-.284-.32-.495-.37-.012 0-.023-.002-.035-.004l-.028-.001h-.03M12.413 4.584c-.13.035-3.096 1.643-3.14 1.712-.07.114.149.29.258.314.162.036 1.061-.05 1.451-.28.114-.084 1.457-1.128 1.562-1.215.129-.109.549-.324.502-.414-.053-.102-.51-.156-.633-.117M13.243 4.991c-.082-.01-.555.57-1.682 1.349-.096.066-.316.205-.364.304-.07.192.251.24.369.24.027-.002.638-.08.921-.242.13-.076 1.397-1.334 1.436-1.389a.444.444 0 0 0 .025-.164c-.066-.1-.277-.03-.395-.046-.091-.012-.22-.038-.31-.052M26.277 4.997c-.111.034-.218.164-.169.293.026.07.102.084.155.128.05.042.086.091.123.142.226.31.45.623.692.922.092.114.188.258.315.346.165.115.493.228.717.228.08-.04.279-.047.283-.167l-.001-.017c-.014-.114-.227-.264-.312-.343l-1.007-.954-.21-.21c-.066-.074-.12-.154-.2-.217a.655.655 0 0 0-.386-.151M12.967 7.426c-.051.018-.034.109-.02.155.026.082.355.614.501.827.126.184.246.372.394.544.563.653 1.243 1.233 1.974 1.605.112.055.72.368.858.355a.037.037 0 0 0 .033-.046c-.009-.035-.04-.055-.068-.073-.138-.064-.277-.13-.415-.193a6.115 6.115 0 0 1-.697-.389 7.323 7.323 0 0 1-1.453-1.219c-.204-.22-.34-.45-.524-.714-.174-.248-.405-.703-.463-.797-.03-.05-.074-.082-.12-.055M27.02 7.48c-.06.031-.39.638-.676 1.047a6.023 6.023 0 0 1-1.16 1.244c-.37.296-.732.51-1.144.724-.258.124-.582.268-.643.32-.082.066-.04.117.055.117.083-.034.463-.191.845-.4.804-.438 1.622-1.162 2.182-1.917.242-.326.568-.935.603-1.02.028-.067.013-.108-.063-.115" fill="#c4c4c4"/><path d="M16.885.23s-.082-.151.096-.24c.181-.089 1.521-.513 3.105-.513 1.74 0 3.251.558 3.34.629.12.096.01.275-.125.248-.134-.026-1.505-.601-3.197-.601-1.692 0-2.874.444-2.978.504-.124.071-.241-.027-.241-.027" fill="#c4c4c4" fill-rule="evenodd"/><path d="M40.21 16.41c0-5.287 5.655-9.572 12.634-9.572 6.98 0 12.638 4.285 12.638 9.572 0 5.287-5.658 9.572-12.638 9.572-6.979 0-12.635-4.285-12.635-9.572z" stroke="#c4c4c4" stroke-width=".585" stroke-miterlimit="3.864" transform="matrix(.39315 0 0 .38872 -.756 -.759)"/><path d="M24.476.34a.187.187 0 0 1 .195.048.11.11 0 0 1-.027.169c-.048.026-.113.029-.168.043-.14.036-.621.105-.648.27-.014.096.114.206.162.24.067.057-.048-.05.018.007.097.084.312.231.196.382a.137.137 0 0 1-.123.049c-.23-.023-.543-.473-.57-.548a.285.285 0 0 1 .033-.263c.18-.254.656-.303.932-.397" fill="#0c0c0c"/><path d="M28.305 1.073c-.013.193.546.154.682.166.202.018.595.162.67.095.091-.08.188-.46.025-.467-.237-.01-.326.016-.59.036-.271.017-.775-.018-.787.17M11.764 1.14c.007.133-.564.132-.7.144-.201.018-.524.155-.633.037-.082-.09-.187-.349-.023-.356.236-.01.403.006.666.026.272.017.677-.044.69.15" fill="#c4c4c4"/><path d="M16.093.301c.267.066.42.059.575.308.077.123.082.321-.048.492-.084.112-.116.147-.208.258-.095.113-.106.19-.266.212-.053.008-.099-.005-.128-.047-.106-.151.119-.335.237-.467.045-.05.148-.2.131-.263-.031-.207-.282-.203-.448-.254-.061-.02-.231-.05-.285-.084-.064-.04-.045-.118-.007-.176.03-.045.186-.04.447.021" fill="#0c0c0c"/><path d="M27.878 1.008c.058.014.13.016.142.085.013.087-.054.169-.231.188-.123-.012-.372-.23-.47-.038-.082.162.44.227.416.388-.018.134-.068.156-.188.156-.055.003-.184-.075-.227-.09-.12-.056-.404-.279-.511-.1-.106.177.615.417.596.555-.019.13-.152.234-.252.2-.138-.033-.582-.548-.784-.346-.185.186.557.513.52.627-.063.191-.232.248-.468.054-.123-.1-.316-.289-.427-.141-.136.181.256.41.29.47.087.154-.11.33-.241.302-.12-.016-.3-.467-.468-.312-.13.118.187.4.154.511-.013.105-.282.242-.407.146-.171-.113.233-.699-.164-1.252a2.307 2.307 0 0 1-.36-.663c-.015-.112-.006-.305.066-.401.279-.369 1.54-.344 2.08-.369.361-.017.564.03.934.03M12.105 1.062c-.073 0-.135.016-.146.088-.014.088 0 .228.15.232.179.003.397-.231.5-.083.119.167-.49.268-.393.47.125.26.372.022.417.006.123-.056.507-.394.662-.172.138.196-.491.48-.567.574-.022.027-.067.174-.05.21.138.302.486.012.719-.24.086-.094.15-.145.236-.167.119-.031.223-.008.255.098.02.06.001.131-.044.173-.048.046-.59.433-.573.549.038.234.181.266.286.215.113-.05.43-.582.618-.512.05.02.112.028.131.075a.226.226 0 0 1-.024.21c-.053.07-.152.16-.219.22a.7.7 0 0 0-.154.17c-.089.156.042.228.187.228.052 0 .08-.028.114-.058.089-.075.18-.406.36-.317.188.093-.16.355-.125.541.051.14.277.17.339.065.069-.167.028-.424.097-.713.068-.26.256-.657.347-.813.058-.093.129-.165.155-.275a.394.394 0 0 0 .005-.023c.015-.116-.059-.212-.139-.283-.13-.118-.307-.19-.47-.244-.483-.16-1-.174-1.553-.2a23.107 23.107 0 0 0-1.12-.024M25.111 4.034c.068-.135.376.013.405.04.085.073.114.194.177.282.077.11.277.34.266.463-.01.1-.4.399-.484.329l-.008-.01a3.265 3.265 0 0 0-.365-1.064c0-.014.004-.028.01-.04M25.533 5.335c.107 0 .29.042.364.106.062.053.093.133.136.199l.226.315.525.697.24.307c.045.075.033.13-.033.183l-.041.005c-.244 0-.624-.09-.79-.234-.083-.073-.127-.16-.18-.247l-.257-.469c-.041-.07-.189-.284-.215-.36l-.01-.034a2.829 2.829 0 0 0-.003-.426c.009-.024.021-.04.038-.042M13.974 5.57c.14-.193.324-.352.494-.326.04.001.068.016.087.038a2.969 2.969 0 0 0-.02.338l.002.052-.004.012c-.048.17-.066.131-.182.354-.177.338-.37.821-.484.873-.167.076-.42.067-.602.112-.262.065-.448-.002-.448-.122.001-.155 1.052-1.175 1.157-1.332M14.043 7.165c.154.014.203.217.384.26.115.027.248-.034.339-.086.058-.033.14-.1.217-.091.521.903 1.463 1.638 2.64 2.067l.006.014a.123.123 0 0 1-.02.101c-.061.07-.66 1.002-.783 1.031-.107.038-.518-.223-.666-.302-.78-.418-1.52-.978-2.091-1.706-.18-.229-.692-.816-.686-1.059.005-.17.57-.233.66-.23M26.041 7.303c.065-.026.532.145.54.258-.005.093-.29.489-.61.913-.561.744-1.256 1.248-2.033 1.676a5.107 5.107 0 0 1-.522.248l-.15.058c-.046 0-.089-.012-.118-.043-.06-.061-.666-.954-.695-.993-.023-.03-.016-.083.005-.12 1.105-.412 1.998-1.093 2.525-1.93.089-.024.245.108.312.14.118.058.267.116.413.076.152-.041.214-.23.333-.283M20.842 9.682c.062.036.094.104.117.15.046.095.194.944.271 1.276.024.11.055.281.037.397-.016.102-.135.244-.259.26-.102.015-.308-.138-.343-.215-.045-.102-.038-.226-.048-.345-.027-.357-.08-1.219-.08-1.311 0-.054.018-.138.075-.19l.23-.022M21.55 9.565c.033.029.058.064.077.09.065.087.368.92.505 1.243.045.106.107.274.109.394.002.106-.092.27-.214.308-.102.033-.336-.085-.385-.157-.065-.094-.08-.221-.112-.34-.092-.356-.301-1.217-.318-1.31a.297.297 0 0 1 .018-.166 6.64 6.64 0 0 0 .32-.062M22.197 9.39c.042.027.076.063.102.09.075.079.478.869.654 1.173.057.1.14.259.158.378.014.104-.06.278-.175.332-.097.044-.345-.045-.402-.11-.076-.086-.106-.21-.153-.324a54.114 54.114 0 0 1-.477-1.263.284.284 0 0 1 .006-.19 5.93 5.93 0 0 0 .287-.085M20.133 9.726c.056.045.078.115.096.163.035.1.078.962.112 1.3.01.112.02.286-.012.398-.029.1-.163.226-.288.228-.104.001-.29-.175-.314-.255-.034-.107-.01-.23-.007-.35.018-.357.07-1.218.082-1.31a.27.27 0 0 1 .09-.174 5.6 5.6 0 0 0 .128.001h.113M19.477 9.708c.045.05.056.123.065.171.02.105-.075.961-.094 1.302-.008.112-.025.285-.075.391-.045.093-.198.197-.32.18-.105-.014-.258-.218-.27-.301-.016-.11.026-.227.048-.345.074-.35.263-1.194.288-1.282a.29.29 0 0 1 .092-.14c.088.009.177.017.266.024M18.817 9.628c.055.061.053.15.054.207 0 .106-.244.934-.323 1.265-.027.11-.074.277-.142.374-.06.083-.229.16-.347.121-.099-.032-.216-.258-.214-.342.004-.112.067-.22.11-.332.134-.333.467-1.13.508-1.213a.305.305 0 0 1 .118-.125c.077.017.156.032.236.045M18.17 9.488c.039.068.023.15.015.203-.016.104-.387.885-.518 1.2-.044.104-.118.262-.2.346-.072.075-.252.123-.362.067-.093-.047-.172-.288-.156-.371.021-.11.1-.206.16-.31.185-.308.64-1.044.694-1.12a.297.297 0 0 1 .105-.091c.086.027.174.052.262.076M14.674 4.004c.091-.023.272-.091.305-.003a3.294 3.294 0 0 0-.394 1.069c-.07.04-.247-.061-.429-.137-.245-.103.12-.309.248-.494.069-.101.183-.366.27-.435M14.562 6.035c.05.356.157.697.318 1.02-.035.066-.397.201-.592.038-.11-.134.15-1.074.274-1.058" fill="#c4c4c4"/><path d="M39.532-.056c.089 0 .168 0 .237.035.097.05.381.328.378.44-.002.06-.357.17-.517.23a8.492 8.492 0 0 1-.432.173c-.03.01-.243.013-.278.012-.049.001-.38.005-.52.005-.055.001-1.066.028-1.41.028-.381 0-.756.008-1.136.008-.085 0-.52.007-.545.01h-1.984l-.139.006-.087.005h-1.05c-.08 0-.61.015-.847.029l-.83.069c-.063 0-.191.023-.21-.047-.02-.075.137-.11.187-.12.584-.114 1.17-.252 1.832-.334 1.1-.136 1.63-.153 1.81-.205.104-.032.083-.166 0-.176-1.18-.138-3.82.374-4.198.452a7.985 7.985 0 0 1-1.399.189h-1.64c-.913-.002-1.309.097-1.371.11-.176.04-.343.094-.5.174-.332.169-.543.377-.403.771.05.085.097.203.145.288.113.222.258.495.376.712.085.155.137.349.137.543l-.047.24c-.003.042-.105.22-.159.188a.255.255 0 0 1-.027-.027 4.21 4.21 0 0 0-.205-.275l-.05-.068c-.086-.11.16-.26.137-.4-.046-.276-.457-.805-.765-1.057-.181-.148-.349-.344-.51-.525-.066-.09-.14-.164-.207-.253a.54.54 0 0 1-.11-.224c-.048-.192.069-.308.194-.407.075-.059.216-.146.332-.193.312-.127 1.042-.255 1.475-.31.143-.015.494-.056.757-.062.292 0 .572.01.846.03.535.041 1.057.14 1.613.148.809.012 1.587-.038 2.372-.075.35-.016.719-.04 1.093-.07.575-.049 2.326-.027 2.585-.011.127.007 1.287.054 1.873.099.13.01.236.022.32.036.258-.005.513.006.765-.009.472-.03.944-.08 1.41-.118l.702-.064zM7.09-.101c.749 0 1.41.062 2.133.096.37.017.73.025 1.101.042.374.017.758.045 1.138.045.682 0 1.325-.043 1.99-.074l.51-.001c.318-.006.67-.019.992.012.2.018.403.02.597.042.264.03.72.084.912.17.177.077.305.195.373.27.13.141.324.363.216.53-.045.084-.17.206-.234.28-.087.096-.762.65-.93.887-.153.21-.197.369-.29.534-.13.212.012.37-.035.495-.14.146-.268.3-.383.46-.025.013-.047.018-.064.005-.116-.08-.094-.252-.066-.474.012-.168.149-.514.198-.604.096-.177.403-.55.428-.618.197-.546-.352-.884-.77-1.019-.138-.044-.276-.095-.422-.122C13.946.76 13.37.77 12.791.752c-.399-.012-.82-.028-1.225-.028L10.69.722C10.41.7 10.127.684 9.866.623 9.419.518 9.044.422 8.596.324A8.082 8.082 0 0 0 7.4.144C7.122.129 6.641.098 6.354.098c-.212 0-1.777-.016-2.008.048-.08.016-.068.165-.014.178.301.085 1.418.11 2.158.084.435.02.92.074 1.332.133A9.34 9.34 0 0 1 9.34.865L9.866 1c.087.026.2.084.082.164-.326 0-.627-.062-.958-.067-.831 0-2.03-.025-2.865-.025-.087-.005-4.13-.048-4.612-.075C.975.968.49.713.31.625.242.595.04.439.052.408.09.31.31-.062.483-.076c.366.034.816.083 1.193.1 0 0 2.7-.03 2.78-.036a43.3 43.3 0 0 1 1.792-.08c.231-.004.623-.02.843-.01M25.517 6.22c.125-.016.385 1.048.22 1.13-.167.087-.565-.115-.611-.168a.052.052 0 0 1-.015-.032c.152-.283.263-.58.327-.89a.146.146 0 0 1 .079-.04" fill="#c4c4c4"/><path d="M20.114-.019c-1.353 0-2.803.378-2.857.46-.125.195.144.187.137.458-.008.33-.269.553-.36.649-.344.361-.783.545-1.087.95-.023.03-.045.165-.014.207.08.106.268-.011.313-.047.639-.494 1.239-.692 1.963-.915.18-.055 1.092-.244 2.27-.194 1.04.044 2 .314 2.836.798.334.194.631.434.948.694.115.096.205-.044.209-.096.004-.06-.045-.145-.077-.196-.24-.397-.77-.755-1.138-1.182-.182-.211-.273-.288-.341-.409-.225-.375.119-.397.076-.569-.034-.137-1.366-.608-2.878-.608" fill="#c4c4c4"/><path d="M19.647 2.634c-.039.023-.105.008-.15.013-.202.026-.403.051-.598.087a4.139 4.139 0 0 0-1.565.634c-.116.08-.25.17-.343.283a.095.095 0 0 1-.009.014c-.033.055-.092.098-.114.158-.01.024-.017.062-.008.089.031.089.198.241.282.29.041.025.112.072.118.124.01.078-.01.154-.014.223l-.001.282v1.931l-.005.24c-.011.04-.172.193-.21.236-.05.057-.075.129-.117.189 0 .005-.003.008-.005.013.024.022.02.065.036.092a.89.89 0 0 0 .207.222c.629.486 1.574.754 2.414.82.332.026.673.002 1.01.002.028-.029.237-.029.295-.029.027-.026.174-.028.221-.028.028-.03.12-.03.162-.03.017-.016.049-.017.076-.017.027-.029.092-.029.134-.029.02-.022.072-.028.104-.028.019-.02.069-.03.099-.03.019-.02.074-.028.104-.028.03-.032.116-.056.162-.056.023-.031.064-.036.096-.05l.242-.117c.28-.164.533-.386.681-.675.03-.056.072-.11.072-.18.023-.023.028-.067.028-.103.034-.033.029-.11.029-.16.037-.042.019-.17.018-.23-.008-.567-.456-1.115-.954-1.326-.01-.003-.033-.004-.033-.016.037-.025.087-.075.136-.075.036-.054.157-.101.213-.149.117-.098.4-.373.4-.52a.104.104 0 0 0 .029-.076c.023-.022.03-.064.03-.098.04-.043.028-.153.028-.217.037-.04.012-.134.004-.179a1.332 1.332 0 0 0-.35-.696c-.042-.046-.09-.078-.132-.121-.133-.137-.308-.224-.47-.305a3.908 3.908 0 0 0-1.546-.372l-.806-.002zm.283.494c.314 0 .624.026.866.167.375.218.487.667.431 1.095-.034.255-.12.5-.315.67-.191.164-.438.204-.697.237-.574.073-1.167-.123-1.33-.668a1.546 1.546 0 0 1-.073-.423l.01-.218c.025-.027.03-.095.03-.133.019-.02.03-.057.03-.086a.092.092 0 0 0 .028-.063.051.051 0 0 0 .017-.04c.031-.024.088-.109.088-.149.045-.025.07-.075.107-.11.099-.09.286-.205.426-.205.014-.015.036-.016.057-.016.03-.032.117-.03.164-.03.035-.037.118-.005.161-.028zm-.074 2.62c.385 0 .725.006 1.03.146.653.297.713 1.37.262 1.862-.327.36-1.03.422-1.514.297-.11-.03-.222-.053-.32-.108a1.018 1.018 0 0 1-.322-.292 1.231 1.231 0 0 1-.21-.643c-.005-.126.012-.253.012-.374.024-.023.029-.078.029-.114.02-.02.028-.06.028-.091a.093.093 0 0 0 .03-.07.15.15 0 0 0 .046-.092c.051-.039.085-.115.122-.166.042-.058.208-.194.278-.194a.198.198 0 0 1 .129-.058c.018-.02.063-.028.092-.028.023-.025.08-.028.116-.028.042-.045.145-.007.192-.047z" fill="#fff"/></svg>