<svg xmlns="http://www.w3.org/2000/svg" width="2049" height="1984" shape-rendering="geometricPrecision" text-rendering="geometricPrecision" image-rendering="optimizeQuality" fill-rule="evenodd" clip-rule="evenodd" viewBox="0 0 2200.59 2130.34"><g fill="#FFF"><path d="M1606.73 151.243c-50.603 225.554-70.543 329.159-111.632 492.465-39.425 156.732-69.96 302.135-122.776 372.644-53.617 71.532-125.113 87.108-173.81 92.588-25.208 2.827-43.589 4.094-98.184 4.303-54.605-.22-72.974-1.476-98.184-4.303-48.695-5.48-120.228-21.056-173.81-92.588-52.79-70.52-83.35-215.946-122.81-372.644-41.065-163.318-61.039-266.923-111.608-492.465 0 0-50.453 1.966-72.789 3.536-30.2 2.152-53.837 4.735-79.594 8.155 0 0 29.025 463.847 42.171 660.366 13.82 206.709 38.075 555.017 60.876 818.018 0 0 42.356 6.735 112.713 10.773 73.998 4.245 106.897 4.71 106.897 4.71 30.445-115.854 68.089-276.647 110.84-345.224 34.748-55.77 88.273-61.679 118.623-65.831 47.674-6.492 87.877-7.48 106.502-6.9h.372c18.625-.616 58.852.396 106.525 6.9 30.316 4.152 83.875 10.062 118.623 65.831 42.752 68.578 80.397 229.37 110.864 345.224 0 0 32.897-.488 106.897-4.71 70.333-4.038 112.713-10.773 112.713-10.773 22.777-263.014 47.055-611.275 60.91-818.018 13.146-196.53 42.136-660.366 42.136-660.366-25.733-3.42-49.37-5.968-79.594-8.155-22.428-1.559-72.87-3.536-72.87-3.536z"/><path d="M2191.13 425.086c-29.92-294.609-226.473-356.823-399.028-385.754-86.981-14.588-241.469-26.93-340.514-30.991C1365.038 2.803 1160.889.023 1100.28 0c-60.574.035-264.736 2.803-351.286 8.34-99.044 4.061-253.532 16.404-340.478 30.992C235.939 68.263 39.373 130.477 9.43 425.086 1.275 505.331-1.064 610.041.414 722.789c2.467 186.677 18.497 312.744 27.676 400.005 6.305 59.9 31.328 239.957 63.47 333.092 44.136 127.975 83.816 165.248 130.536 203.324 85.41 69.659 226.078 91.076 256.057 96.461 158.827 28.56 480.25 33.702 622.14 33.515 141.924.187 463.382-4.955 622.139-33.515 30.014-5.385 170.67-26.814 256.08-96.461 46.719-38.075 86.4-75.349 130.536-203.324 32.13-93.136 57.13-273.193 63.47-333.092 9.168-87.26 25.21-213.328 27.64-400.005 1.501-112.749-.837-217.493-9.027-297.703zm-107.944 494.873c-17.45 235.338-38.377 376.46-68.297 478.192-26.29 89.11-58.852 148.974-106.408 192.004-79.385 71.811-188.713 87.225-252.858 96.776-138.574 20.556-371.935 27.698-555.354 27.768-183.418-.057-416.756-7.2-555.353-27.768-64.111-9.539-173.416-24.965-252.788-96.776-47.58-43.03-80.153-102.93-106.408-192.004-29.944-101.72-50.884-242.854-68.3-478.192-10.516-141.854-8.293-371.69 7.493-495.21C148.4 240.573 239.847 147.799 435.82 112.865c91.449-16.286 214.375-27.85 331.032-33.608 93.543-6.305 247.495-9.481 333.43-8.678 85.968-.803 239.921 2.373 333.428 8.678 116.657 5.782 239.584 17.333 331.032 33.608 195.972 34.935 287.42 127.674 310.965 311.861 15.763 123.543 17.95 353.379 7.48 495.233zM1727.67 2121.48v-33.234l34.34-3.323c11.08-2.218 15.507-12.185 17.722-14.4l83.086-136.256c6.644-9.967-.004-19.936-8.865-21.044l-43.203-4.432v-34.339h189.427c11.08 0 17.724 7.753 22.156 14.4l110.778 169.49c8.865 13.288 15.505 24.367 26.585 25.476l35.45 3.32v34.343h-213.801v-33.234l26.588-3.323c13.294-1.106 24.367-7.753 13.292-23.259l-9.967-15.511h-151.763l-12.19 18.828c-6.644 11.08 0 18.836 11.08 19.946l27.692 3.32v33.233H1727.67zm158.407-119.64h96.376l-48.74-75.326-47.636 75.326zM1585.87 1874.45h-243.705v34.338l29.907 2.218c12.188 2.214 16.617 9.97 16.617 21.046v132.931c0 9.971-4.432 18.832-14.403 19.942l-32.121 4.43v32.123h243.705c112.989 0 161.734-54.276 161.734-127.389.003-64.254-48.745-119.639-161.738-119.639h.004zm-37.665 199.395h-63.138v-151.763h63.138c60.93 0 85.298 13.294 85.298 76.436.003 62.031-24.368 75.33-85.298 75.327zM13.955 2121.48h198.289v-33.234l-34.34-3.323c-7.753-1.106-15.51-5.535-15.51-22.153v-39.876h152.871v37.658c0 11.077-2.214 22.156-15.509 23.265l-34.34 3.32v34.343h198.288v-34.342l-35.447-3.32c-6.647-1.113-14.4-6.647-14.4-19.939v-128.5c0-13.294 4.43-22.157 15.509-23.265l34.338-3.323v-34.339H265.415v33.232l34.341 4.426c12.188 1.112 15.51 11.083 15.51 23.269v37.662H162.393v-38.774c0-14.4 6.647-21.045 16.618-22.153l33.232-3.324v-34.338H15.06v34.338l33.236 3.32c12.184 1.112 16.614 11.083 15.509 23.269v125.173c0 14.404-3.325 23.265-16.619 24.375l-33.232 3.32v33.233zM472.57 1997.41c0-77.544 63.142-131.821 202.719-131.821 138.472 0 201.61 54.28 201.61 131.821 0 78.652-63.138 132.934-201.61 132.934-139.577-.004-202.719-54.28-202.719-132.934zm202.719-85.3c-56.494 0-88.621 21.054-88.621 85.3 0 65.356 32.127 86.407 88.621 86.407 55.392 0 87.513-21.047 87.513-86.407 0-64.246-32.122-85.297-87.513-85.3zM887.978 2121.48h157.304v-33.234l-33.232-3.323c-9.971-1.106-15.513-8.858-15.513-21.044v-125.177l130.726 172.809c4.422 6.641 13.287 9.97 21.04 9.97l124.071-.002v-187.214c0-8.858 2.215-21.044 14.4-22.152l34.343-3.324v-34.338h-157.302v33.232l34.342 4.426c12.182 1.112 14.4 12.19 14.4 23.269v121.85L1082.95 1885.53c-5.537-6.654-12.188-11.08-21.05-11.08H887.978v34.339l32.128 3.319c12.184 2.218 16.617 7.76 16.617 23.269v125.173c0 15.51-4.433 22.157-16.617 24.375l-32.128 3.32v33.233z"/></g></svg>