<svg xmlns="http://www.w3.org/2000/svg" version="1" width="217" height="354" viewBox="-0.481 -0.503 217 354"><path d="M10.422 30.563c0-11.101 9.045-20.151 20.152-20.151h155.231c11.269 0 20.313 9.05 20.313 20.151v292.351c0 11.105-9.044 20.15-20.313 20.15H30.574c-11.106 0-20.152-9.045-20.152-20.15V30.563" fill="#fff"/><path d="M18.785 65.057V30.563c0-6.485 5.303-11.777 11.789-11.777h155.231c6.658 0 11.951 5.292 11.951 11.777v34.494H18.785M18.785 73.43h178.96v206.634H18.785z" fill="#004990"/><path d="M160.015 48.16c.684 1.02 2.225 2.218 3.242 2.728 2.908 1.54 5.479 2.049 8.2 2.049 4.272 0 6.832-1.882 6.832-4.608 0-3.255-3.253-3.765-8.198-4.436-6.313-.857-9.729-3.765-9.729-8.883.162-5.125 4.957-9.063 11.951-9.063 4.771 0 8.026 1.031 10.076 2.051v6.665c-.684-1.194-2.225-2.051-3.752-2.728a19.54 19.54 0 0 0-6.324-1.031c-3.416 0-5.467 1.367-5.467 3.086 0 2.89 2.734 3.237 8.711 4.436 5.975 1.192 9.564 3.759 9.391 9.045-.173 6.144-4.957 10.248-13.491 10.248-3.765 0-8.536-.688-11.442-2.218V48.16M53.968 35.861c0 3.075-2.559 4.267-6.485 4.267h-7.169v-8.714h7.169c3.926 0 6.485 1.198 6.485 4.447m4.435 13.66c-1.529-2.9-2.722-5.118-4.945-6.149 4.783-1.02 7.169-3.753 7.169-7.852 0-3.926-1.714-6.996-4.945-8.194-2.049-.857-4.622-.857-8.547-.857H31.431c1.54 1.02 2.386 4.094 2.386 6.833v17.244c0 2.559-.847 5.807-2.386 6.665h11.256c-1.528-.858-2.373-4.106-2.373-6.665v-5.473h4.771c2.398 0 3.763.857 4.783 2.745 1.702 2.728 2.908 6.485 4.957 9.393h9.044c-2.721-1.877-4.099-4.784-5.466-7.69zM82.318 58.062c4.261 0 7.863-1.2 10.585-3.596 3.254-2.722 5.465-6.828 5.465-12.63 0-5.628-2.211-9.901-5.465-12.64-2.722-2.218-6.324-3.416-10.585-3.416-4.274 0-7.853 1.198-10.597 3.416-3.231 2.739-5.455 7.012-5.455 12.64 0 5.802 2.224 9.908 5.455 12.63 2.744 2.396 6.497 3.596 10.597 3.596m-6.486-8.026c-1.875-1.708-2.732-4.436-2.732-8.2 0-3.59.857-6.316 2.732-8.193 1.529-1.541 3.753-2.559 6.486-2.559 2.732 0 4.956 1.018 6.485 2.559 1.888 1.876 2.906 4.603 2.906 8.193 0 3.765-1.019 6.492-2.906 8.2-1.53 1.54-3.753 2.559-6.485 2.559-2.733 0-4.957-1.019-6.486-2.559zM126.72 49.346c-1.715 2.229-5.293 2.908-9.219 2.908h-5.977V33.302c0-2.565.847-5.814 2.213-6.833h-11.094c1.527 1.02 2.396 4.269 2.396 6.833v17.244c0 2.738-.869 5.634-2.396 6.665h23.045l1.032-7.865M154.548 49.346c-1.713 2.229-5.292 3.081-9.218 2.908h-6.149V33.302c0-2.565.846-5.814 2.396-6.833h-11.105c1.528 1.02 2.396 4.269 2.396 6.833v17.244c0 2.738-.868 5.807-2.396 6.826h22.873l1.203-8.026" fill="#fff"/><path d="M216.368 30.563C216.368 13.66 202.702 0 185.806 0H30.574C13.666 0 0 13.66 0 30.563v292.351c0 16.92 13.666 30.574 30.574 30.574h155.231c16.896 0 30.563-13.654 30.563-30.574V30.563m-205.946 0c0-11.101 9.045-20.151 20.152-20.151h155.231c11.269 0 20.313 9.05 20.313 20.151v292.351c0 11.105-9.044 20.15-20.313 20.15H30.574c-11.106 0-20.152-9.045-20.152-20.15V30.563z" fill="#004990"/><path d="M18.785 288.425v34.488c0 6.508 5.303 11.789 11.789 11.789h155.231c6.658 0 11.951-5.281 11.951-11.789v-34.488H18.785" fill="#004990"/><path d="M95.462 247.103v-45.94c4.436-.163 8.709-.337 12.983-.685-1.541-3.59-3.081-7.168-4.957-10.584-2.56.335-5.28.335-8.026.51v-9.555c-5.977 1.365-12.461 2.385-19.12 3.069v63.185c0 13.99-6.497 17.754-10.422 20.314h39.954c-3.74-2.56-10.412-6.324-10.412-20.314M188.364 267.255c-3.242-3.081-7.354-7.863-9.391-17.244-3.754-17.256-11.617-42.017-28.177-60.465 16.225-8.871 26.126-22.884 26.126-40.116.162-12.305-6.15-25.276-17.418-32.96-4.782-3.087-10.412-5.305-17.081-6.672 2.396 5.126 3.926 10.592 4.272 16.064 6.995 5.455 10.76 13.828 10.76 23.902 0 12.809-6.486 27.83-29.195 35.519 1.863 3.579 3.739 7.343 5.28 10.922 1.204-.335 2.396-.673 3.601-1.02 10.585 12.299 19.109 31.594 21.668 49.521 1.889 12.982-2.721 19.468-5.789 22.549h35.344" fill="#fff"/><path d="M60.8 169.744V98.027h27.146c9.912.168 17.256 2.218 23.059 6.306 7.677 5.465 11.789 14.176 11.789 24.598 0 17.58-12.137 39.955-61.994 40.813m87.773 76.839c-3.418-3.069-7.504-7.854-9.393-17.244-3.753-17.244-11.27-41.495-26.289-58.751.672-.335 1.193-.51 1.864-.845 17.083-8.711 27.505-23.232 27.505-40.991.163-12.462-6.16-25.27-17.418-32.955-8.883-5.975-20.833-8.361-36.039-8.361H31.257c3.926 2.559 10.412 6.312 10.412 20.313V226.27c0 14.163-6.486 17.754-10.412 20.313h39.955c-3.753-2.56-10.412-6.15-10.412-20.313v-45.942c14.002 0 27.146-1.713 38.241-4.609 10.087 12.126 17.603 30.91 19.989 48.154 1.702 12.994-2.733 19.642-5.803 22.711h35.346v-.001z" fill="#fff"/><path d="M95.462 159.505V119.03h21.518c-1.527-4.447-4.273-8.032-8.014-10.771H65.919c3.926 2.564 10.422 6.155 10.422 20.324v35.693c7.17-1.019 13.654-2.547 19.121-4.771M134.571 311.656c0 5.791 3.417 10.238 9.393 10.238 4.272 0 8.198-1.193 9.902-3.242l-1.031 6.67c-1.529.672-4.262 1.529-8.697 1.529-9.566 0-16.227-5.641-16.227-15.195 0-5.118 2.051-9.056 5.12-11.615 2.733-2.397 6.485-3.764 11.106-3.764 4.436 0 7.168.856 8.697 1.713v6.324c-1.865-2.049-4.599-3.08-8.871-3.08-5.975 0-9.392 4.447-9.392 10.422M52.937 305.843c0 2.906-2.385 4.099-6.138 4.099h-6.832v-8.187h6.832c3.753 0 6.138 1.018 6.138 4.088m4.274 12.982c-1.367-2.733-2.561-4.957-4.61-5.802 4.447-.857 6.659-3.591 6.833-7.342 0-3.926-1.704-6.834-4.784-8.038-1.875-.683-4.436-.683-8.199-.683H31.594c1.377.857 2.224 3.764 2.224 6.484v16.411c0 2.385-.847 5.466-2.224 6.485h10.585c-1.355-1.02-2.212-4.101-2.212-6.485v-5.304h4.436c2.396 0 3.751 1.02 4.794 2.732 1.528 2.571 2.722 6.139 4.597 8.882l8.72.175c-2.744-2.037-3.926-4.62-5.303-7.515zM79.932 327.025c4.088 0 7.504-1.193 10.063-3.418 3.069-2.559 5.305-6.496 5.305-11.951 0-5.465-2.235-9.391-5.305-12.137-2.559-2.039-5.975-3.242-10.063-3.242-3.938 0-7.354 1.203-9.913 3.242-3.07 2.746-5.294 6.672-5.294 12.137 0 5.455 2.224 9.393 5.294 11.951 2.56 2.225 5.976 3.418 9.913 3.418m-6.161-7.679c-1.702-1.553-2.559-4.112-2.559-7.69 0-3.59.857-6.138 2.559-7.863 1.541-1.527 3.59-2.385 6.324-2.385 2.559 0 4.608.857 6.149 2.385 1.702 1.726 2.56 4.273 2.56 7.863 0 3.578-.857 6.138-2.56 7.69-1.541 1.528-3.59 2.548-6.149 2.548-2.734 0-4.783-1.019-6.324-2.548zM118.172 296.96c.696.52 1.031 1.029.858 1.702 0 .694-.349 1.714-1.02 2.745l-5.814 8.361-5.802-8.535c-.683-1.02-1.354-2.038-1.192-2.906.162-.51.348-1.02 1.02-1.367h-11.78c2.039.857 3.069 2.396 4.599 4.62l9.577 13.481v4.794c0 2.385-.857 5.466-2.224 6.311h10.585c-1.367-.845-2.224-3.926-2.224-6.311v-4.794l8.72-12.289c1.367-1.702 3.244-4.783 5.293-5.813h-10.596M174.873 321.558h-7.517v-8.025h11.281l.671-4.447h-11.952v-7.33h6.66c3.763 0 6.833.16 8.373 1.689v-6.484h-23.395c1.367 1.029 2.213 4.11 2.213 6.484v16.411c0 2.548-.846 5.466-2.213 6.485h23.568l1.018-7.182c-1.712 2.225-4.942 2.399-8.707 2.399" fill="#fff"/></svg>